<svg width="24" height="24" viewBox="0 0 24 24" fill="none" xmlns="http://www.w3.org/2000/svg">
<rect width="24" height="24" rx="12" fill="#FFF4C6"/>
<mask id="mask0_3302_37" style="mask-type:luminance" maskUnits="userSpaceOnUse" x="3" y="3" width="18" height="21">
<path d="M5.8752 16.2011C5.8752 16.2011 4.62794 17.9007 4.55748 18.5658C3.54072 20.7913 3.11949 22.3957 3.11949 22.3957L3.01257 24L20.1776 23.8682V21.5996L20.1996 21.0415L20.9799 15.7409L18.3031 14.4263C18.3031 14.4263 16.9849 14.2318 16.7404 13.9696C16.4959 13.7075 17.1685 6.65467 17.1685 6.65467L12.1241 3.57605L7.54701 6.2815L7.41631 9.80345L9.34065 13.788L9.55449 14.4898C9.55449 14.4898 8.73981 14.8392 8.68668 14.8641C8.63357 14.8889 5.8283 15.9465 5.8283 15.9465L5.87541 16.2014L5.8752 16.2011Z" fill="white"/>
</mask>
<g mask="url(#mask0_3302_37)">
<path d="M21.7181 21.373C21.5983 21.3712 21.4618 21.3947 21.3304 21.3916C21.1228 21.3865 20.8801 21.343 20.6853 21.3375C20.6109 21.3355 20.2316 21.3952 20.1992 21.3626C20.203 21.2562 20.1939 21.1481 20.1997 21.0416C20.2683 19.778 20.3197 18.0651 20.1116 16.8292C20.0205 16.2878 19.926 15.9243 19.5577 15.5119C19.178 15.0867 18.9295 14.8499 18.4009 14.601C18.2475 14.5287 17.9845 14.4046 17.8289 14.3626C17.6798 14.3224 17.5431 14.3355 17.4039 14.2705H17.8512C17.8841 14.1055 17.5706 13.9455 17.4473 13.9628C17.371 13.9735 17.2897 14.118 17.2061 14.1455C17.1054 14.1786 16.8558 14.0136 16.7406 13.9699C16.4543 13.8613 16.1305 13.7606 15.8728 13.6587C15.7488 13.6096 15.6167 13.5754 15.4938 13.5232C15.3313 13.5241 14.6298 14.2128 14.4535 14.3537C13.6293 15.0137 12.1299 15.7054 11.0781 15.297C10.9531 15.2484 10.7875 15.1689 10.762 15.0237L10.9311 14.9407L10.9456 15.0242L11.1536 15.0224C11.1645 15.1398 11.3157 15.1547 11.4206 15.1638C11.3975 15.0996 11.4088 14.9842 11.3928 14.9329C11.3813 14.8961 11.2679 14.9005 11.313 14.7635C11.3415 14.6772 11.4935 14.6991 11.5633 14.6763L11.5664 14.6103C11.6302 14.5393 11.8554 14.6605 11.9212 14.706C11.9339 14.7147 12.1041 14.8548 12.1124 14.8645C12.1319 14.8883 12.115 14.9469 12.1651 14.9653C12.2551 14.9984 12.368 14.9362 12.426 14.8668C12.35 14.7433 12.3925 14.6283 12.3704 14.514C12.3629 14.4747 12.1559 14.3646 12.1384 14.32C12.1299 14.2989 12.0741 14.1011 12.0744 14.0891C12.0752 14.0336 12.1857 13.9419 12.0361 13.8378L12.1201 13.8238C12.0577 13.745 12.1279 13.68 12.1962 13.6271C12.2168 13.6112 12.3595 13.5903 12.2695 13.5448C11.9563 13.4733 12.2295 13.3341 12.3713 13.2515L12.2611 13.1379L12.3158 13.0846L12.2595 12.9865L12.3991 13.014L12.3713 12.9305C12.4303 12.9387 12.4689 12.9805 12.5109 12.9163C12.4393 12.8897 12.424 12.8386 12.4273 12.7631L12.5672 12.8186C12.5294 12.7494 12.5854 12.7181 12.591 12.6663C12.5934 12.6426 12.5636 12.5991 12.5667 12.5955C12.5696 12.5924 12.6223 12.5971 12.6481 12.5798C12.7225 12.5296 12.7348 12.4435 12.8464 12.5114L12.8186 12.3438L12.7354 12.3298C12.7588 12.2983 12.8072 12.2898 12.829 12.2601C12.9311 12.1211 13.0633 11.9917 13.18 11.8529C13.2111 11.8161 13.2881 11.7868 13.2912 11.781C13.3114 11.7455 13.1729 11.5419 13.3503 11.4922C13.1978 11.4318 13.3487 11.3068 13.3516 11.1839C13.3543 11.0653 13.254 10.9583 13.3223 10.808C13.4317 10.8253 13.734 10.8891 13.8326 10.8593C13.8411 10.8569 13.9796 10.7792 13.9856 10.7729C13.9987 10.7592 14.0172 10.6791 14.0203 10.6535C14.0294 10.5791 13.9969 10.6289 13.9658 10.6267C13.6971 10.6067 13.4188 10.7019 13.4897 10.3059L13.3927 10.3818C13.3074 10.3933 13.2696 10.1656 13.2652 10.0976C13.258 9.98751 13.2932 9.90539 13.2943 9.81726C13.2963 9.67052 13.2674 9.50802 13.2958 9.34417C13.3101 9.2625 13.4861 8.99365 13.5475 9.06668C13.6479 9.18635 13.6357 9.38125 13.6606 9.53487C13.6697 9.59039 13.71 9.62034 13.716 9.70381C13.7286 9.88095 13.6608 9.85765 13.6153 9.97021C13.547 10.1383 13.4234 10.3571 13.7135 10.3054L13.6575 10.1662C13.7509 10.1742 13.8233 10.1396 13.8811 10.0681L13.8253 10.0361V9.94268C14.2594 10.0046 13.9187 9.68094 13.9371 9.66363L14.1045 9.77507L14.0772 9.52379C14.2206 9.62744 14.3357 9.85676 14.161 9.98463C14.2752 10.0115 14.3668 9.84323 14.4546 9.77531C14.4833 9.81371 14.4491 9.84611 14.524 9.83101C14.5086 9.75755 14.5826 9.72179 14.6007 9.67007C14.6564 9.50869 14.5733 9.15303 14.5226 8.98122C14.4619 8.77587 14.3728 8.63202 14.1319 8.69951C14.0725 8.71616 14.0267 8.771 13.9714 8.79075C13.9656 8.79275 13.8311 8.81271 13.8533 8.75634C14.4593 8.21245 14.8207 8.83626 14.7754 9.45363C14.7398 9.93779 14.4286 10.3463 14.4951 10.8768C14.5177 11.0939 14.4973 11.3668 14.5242 11.5766C14.5291 11.6152 14.5404 11.6594 14.5798 11.6181C14.6522 11.1701 14.7989 10.7339 14.9194 10.2957C15.0417 9.85122 15.1277 9.52532 15.198 9.06625C15.2111 8.98122 15.3171 8.55654 15.2998 8.52524C15.2953 8.51725 15.2588 8.52035 15.2495 8.50393C15.2406 8.43601 15.3998 8.27749 15.2542 8.22776L15.2791 8.0444L15.3904 8.07215C15.3853 7.93873 15.3996 7.80287 15.3884 7.66967C15.3833 7.60952 15.3364 7.55003 15.3349 7.49675C15.3322 7.41371 15.478 7.20548 15.3489 7.09559L15.2511 7.15086L15.2371 7.09494C15.2153 7.16975 15.1862 7.15419 15.1115 7.15086C15.1019 7.04053 15.2424 7.06095 15.2791 6.98394C15.1075 6.94907 15.1446 6.60764 15.0695 6.4809C15.0466 6.44204 14.939 6.42872 14.8859 6.38499C14.7625 6.28398 14.8109 6.15944 14.5918 6.14833C14.5606 6.26934 14.5042 6.16455 14.4691 6.1035L14.5667 6.08929L14.5802 6.03402C14.4911 6.05576 14.4131 5.99627 14.339 5.98674C14.2986 5.98141 14.2465 6.0158 14.2079 6.00827C14.1821 6.00315 14.1817 5.95033 14.1599 5.93855C14.0245 5.86484 13.8191 5.80203 13.6908 5.74719C13.686 5.7452 13.6746 5.67793 13.611 5.67615C13.5228 5.67349 13.535 5.75473 13.5319 5.81067L13.4341 5.74098L13.5177 5.67128H13.3503L13.4339 5.79692C13.3516 5.83422 13.2416 5.75207 13.1618 5.73366C12.7163 5.63108 12.4954 5.6817 12.1395 5.33672C12.1044 5.30276 12.0779 5.17801 11.9897 5.17311C11.9083 5.17002 11.6262 5.55162 11.5884 5.25258L11.52 5.31097C11.3513 5.26813 11.1825 5.15823 11.0011 5.20995C10.9236 5.29899 11.1552 5.19311 11.1972 5.2244L11.1136 5.33583L11.4771 5.41998C11.3724 5.65506 11.3426 5.47213 11.3048 5.45106C11.2781 5.43596 11.2225 5.47304 11.1694 5.46239C11.0483 5.43817 10.8831 5.28721 10.7958 5.30699C10.772 5.31231 10.7949 5.40488 10.6666 5.33495L10.6942 5.28035C10.6224 5.2508 10.6477 5.33029 10.6201 5.33651C10.5659 5.34827 10.493 5.32695 10.4308 5.33828C10.2558 5.37003 10.1485 5.49167 10.0515 5.62955L10.1069 5.64263C10.0945 5.8118 9.93063 5.90259 9.82748 6.01981C9.78524 6.06776 9.76923 6.149 9.71811 6.18985C9.6223 6.26643 9.5514 6.20495 9.40824 6.34103L9.63185 6.28554C9.53295 6.37143 9.4496 6.45071 9.4358 6.59233C9.32955 6.63051 9.39269 6.35946 9.40824 6.34103C9.21329 6.52619 9.27041 6.72443 9.46404 6.88559C9.55539 6.96174 9.69744 6.97705 9.68811 7.09494H9.72944C10.0722 6.77149 10.4174 6.5961 10.8836 6.51642C11.2512 6.45359 11.5813 6.49131 11.9112 6.67513C12.0837 6.77125 11.9156 6.83075 12.0359 6.84407L11.9523 6.92711L12.0919 6.95574L12.0366 7.02522C12.0739 7.08073 12.0957 7.06297 12.1479 7.03899L12.1904 7.23589L12.3435 7.23479L12.2586 7.46987C12.3404 7.50495 12.348 7.56733 12.3435 7.65325L12.2602 7.59752L12.2353 7.88679C12.2517 7.93297 12.3307 7.9323 12.3729 7.97336C12.4682 8.06639 12.5216 8.25419 12.6794 8.26772C12.6896 8.33943 12.671 8.3259 12.6123 8.32079C11.9565 8.26328 11.2537 7.90189 10.5695 8.10102L10.5826 8.04419C10.3214 8.05861 9.91572 8.16318 9.7141 8.33521C9.66677 8.37563 9.6452 8.46663 9.58496 8.4855C9.46316 8.52368 9.20374 8.39538 9.10104 8.5461L9.24509 8.57007C8.99324 8.54343 8.24789 8.89863 8.19099 9.07535C8.12808 9.27071 8.23968 9.23473 8.28413 9.32022C8.32414 9.39723 8.33081 9.61213 8.35971 9.71936C8.4624 10.0992 8.55598 10.2677 8.9888 10.138C8.84496 10.5347 9.03658 11.006 9.06214 11.4134C9.06413 11.4447 9.03814 11.494 9.04503 11.506C9.0468 11.5089 9.08415 11.4784 9.11326 11.5044C9.17818 11.5623 9.16995 11.6676 9.1904 11.6955C9.21084 11.7233 9.31133 11.7051 9.29688 11.7846L9.34911 11.781C9.34445 11.7191 9.41225 11.7377 9.42735 11.7218C9.54051 11.6012 9.69432 11.4129 9.82726 11.296C9.90639 11.2263 10.0776 11.2021 10.006 11.1148C9.76368 11.0817 9.48848 11.0837 9.28042 11.2254L9.19884 11.171L9.11482 11.3381C9.04013 11.3073 9.08727 11.0138 9.20506 10.9539C9.39 10.8597 9.79347 10.7769 9.99531 10.836L9.91172 10.9472L10.2571 10.9514L10.3025 11.0738C10.6573 11.0738 10.3089 11.2975 10.3872 11.4496C10.252 11.4483 10.2331 11.5382 10.1491 11.6172L10.0237 11.5335L10.04 11.6469C9.90372 11.6698 9.94128 11.7322 9.90862 11.7828C9.90461 11.789 9.78591 11.7537 9.76013 11.7621C9.71945 11.7757 9.72432 11.8372 9.70366 11.8376C9.5954 11.8401 9.52716 11.7251 9.42202 11.8962L9.39447 11.8396C9.29976 11.8223 9.31354 11.906 9.2922 11.9187C9.28354 11.9238 9.17016 11.9728 9.12704 11.9937C9.05146 12.0303 9.00324 11.9271 9.01546 12.1622C9.04212 12.6739 9.91128 12.9252 10.3234 13.0342C10.5181 13.0857 10.6831 12.9967 10.6884 13.3061C10.6942 13.6349 10.6766 13.9597 10.6388 14.2836C10.6277 14.3779 10.6579 14.4863 10.6248 14.5768C10.5984 14.649 10.5661 14.5602 10.5546 14.5349C10.4908 14.3959 10.4501 14.2829 10.4832 14.1279C10.503 14.0361 10.5617 13.9983 10.5821 13.9477C10.6342 13.8194 10.3739 14.048 10.3561 14.0571C10.1349 14.1688 10.0998 14.1872 9.89283 14.3204C9.84615 14.3506 9.5934 14.482 9.55474 14.4883C9.44648 14.5056 9.39869 14.4046 9.30332 14.3861C9.13349 14.3533 8.96921 14.5151 8.98901 14.6878C9.01035 14.7114 9.25198 14.55 9.29487 14.5329C9.31932 14.5233 9.41314 14.494 9.40779 14.548C9.36912 14.5549 9.32333 14.5637 9.28908 14.583C8.89697 14.803 8.43039 14.9047 8.10785 15.2462L8.14988 15.1349C8.13075 15.1209 7.79266 15.3181 7.73064 15.3443C7.44855 15.4633 7.13091 15.5128 6.85392 15.6413C6.64988 15.7361 6.46848 15.8882 6.28577 15.9954C6.15329 16.0733 6.00236 16.1261 5.87542 16.1998C5.73428 16.2815 5.72828 16.3865 5.48352 16.3393L5.46598 16.4187C5.38104 16.4354 5.33926 16.4201 5.31569 16.3883C5.19478 16.5224 5.13855 16.6743 5.10632 16.8521C5.08318 16.9795 5.0683 17.1125 5.02829 17.2365C5.06252 17.2516 5.09698 17.2614 5.12921 17.2581C5.16876 17.3047 5.00228 17.5753 4.94892 17.6195H4.808C4.72042 17.7318 4.62483 17.8388 4.54126 17.9538C4.54637 17.9543 4.55192 17.9545 4.55703 17.9549C4.59327 17.958 4.75332 17.9683 4.73775 18.0222C4.56569 18.5421 4.38276 19.0582 4.27229 19.5961C4.23516 19.7771 4.23982 19.9911 4.19583 20.162C4.16204 20.2925 4.068 20.4422 4.02711 20.5798C3.80103 21.3375 3.57008 22.0856 3.32156 22.8348C3.28733 22.9383 3.11662 23.4389 3.12017 23.4988C3.12972 23.6671 3.27843 23.549 3.3289 23.5401C3.54384 23.5024 3.88995 23.6067 4.09644 23.6784H6.50072C6.725 23.3294 7.15536 22.9123 7.5626 22.7984C8.01471 22.6721 8.88788 23.0255 9.38002 23.1343C10.9571 23.4826 12.5836 23.7339 14.2028 23.6202L14.6642 23.6784H15.6427C15.5992 23.6229 15.6223 23.6109 15.655 23.5658C15.8348 23.3192 16.5359 23.1951 16.8311 23.176C17.642 23.1236 18.4682 23.2568 19.1653 23.6784H20.0878L20.1716 21.4169H21.877C21.8777 21.3779 21.7454 21.3721 21.7185 21.3717L21.7181 21.373ZM15.083 6.84385V6.88513L15.0412 6.92687L14.9714 6.89934V6.84385H15.083ZM14.3839 6.06219V6.11771H14.2443V6.06219H14.3839ZM10.5626 5.50523L10.1627 5.69857C10.3041 5.53741 10.3483 5.34695 10.6099 5.39178L10.5628 5.50499L10.5626 5.50523ZM10.8055 5.7825L10.6657 5.75451V5.69903C10.7048 5.68259 10.8244 5.7674 10.8055 5.7825ZM11.1694 10.8362L11.2392 10.6968L11.2812 10.78C11.1977 10.7565 11.217 10.816 11.1697 10.836L11.1694 10.8362ZM12.9026 9.80327C12.895 9.73422 12.9006 9.65631 12.9862 9.66385V9.80348L12.9026 9.80327ZM12.2595 8.49128H12.3431V8.54677H12.2595V8.49128ZM12.2033 8.4633C12.2037 8.60672 11.9997 8.57298 11.9017 8.55743C11.7736 8.53722 11.5698 8.49327 11.5327 8.35141L12.2033 8.46308V8.4633ZM9.58875 9.93803C9.34712 9.92737 9.4398 9.9398 9.22064 9.98775C9.18418 9.99575 8.94389 10.0204 8.93122 10.0133C8.69981 9.88297 9.22462 9.3746 9.30776 9.27049C9.38024 9.17967 9.51716 8.85224 9.65631 8.94126C9.72701 9.14571 9.7748 9.48138 9.91083 9.6501C9.9415 9.68804 10.0015 9.69671 10.0306 9.75443C10.1409 9.97199 9.7141 9.94335 9.58875 9.93779V9.93803ZM10.3761 10.3354C10.3543 10.3414 10.3594 10.3869 10.3463 10.3867C10.1749 10.3842 10.0931 10.2717 9.99552 10.1525C10.0511 10.0575 10.2494 10.0146 10.3243 10.0894C10.3463 10.1114 10.3418 10.164 10.3652 10.1875C10.395 10.2175 10.5001 10.2291 10.5261 10.2926C10.5579 10.3707 10.3883 10.3323 10.3763 10.3356L10.3761 10.3354ZM10.91 10.3512C10.9087 10.3403 10.816 10.1678 10.8069 10.1569C10.7891 10.1361 10.6622 10.0901 10.6459 10.0745C10.6317 10.0608 10.6442 10.0175 10.6315 10.0051C10.6044 9.97842 10.5186 10.039 10.5588 9.89118C10.6486 9.8925 10.6784 9.81548 10.7397 9.77907C10.7911 9.74867 11.0014 9.67518 11.0265 9.63099C11.0356 9.61501 11.0034 9.56684 11.0136 9.52355C11.0403 9.40856 11.1694 9.25494 11.2668 9.18855C11.4711 9.04916 12.0077 8.78941 12.2473 8.80163C12.3009 8.80429 12.3409 8.85445 12.3858 8.85313C12.4189 8.85224 12.4709 8.80319 12.5516 8.79584C12.7037 8.78209 12.7779 8.85246 12.9026 8.85402L12.875 9.02118L12.9584 9.03495C12.9151 9.08199 12.9415 9.14816 12.9308 9.19832C12.9246 9.22787 12.8426 9.20322 12.8753 9.27291L12.9589 9.24517L12.9311 9.38459L13.0009 9.36527C13.0789 9.39834 13.0211 9.46429 13.0146 9.52422L12.9311 9.49626L12.9589 9.57973L12.8779 9.55263C12.7661 9.70693 12.8357 9.85544 12.791 10.0264L12.7632 9.91494L12.6934 9.9711L12.6519 9.91515C12.6492 9.94489 12.5436 10.0699 12.5345 10.0754C12.5265 10.0803 12.4785 10.0526 12.4185 10.085C12.3458 10.1243 12.3109 10.2308 12.2737 10.2499C12.1973 10.2894 12.2406 10.0681 12.1484 10.1105L12.1319 10.1969L11.9803 10.2222L12.0041 10.2919L11.9521 10.3616C11.8745 10.3483 11.9672 10.1827 11.9526 10.1667C11.8521 10.1636 11.8705 10.3165 11.7603 10.2732L11.7294 10.2226L11.7147 10.4741L11.5893 10.4455C11.6669 10.3252 11.6313 10.1316 11.62 9.98775L11.4742 9.98442L11.4506 10.0703C11.3653 10.0441 11.3695 10.0823 11.3086 10.1287L11.3655 10.2786L11.2815 10.265L11.3655 10.5019C11.3268 10.396 11.4195 10.3496 11.4366 10.2928C11.4455 10.2628 11.4246 10.1589 11.4499 10.1112C11.4844 10.0785 11.6229 10.2195 11.5898 10.2786H11.4775L11.4913 10.3341L11.5613 10.3065L11.5053 10.5576L11.4357 10.4744C11.3637 10.5321 11.3137 10.5301 11.3375 10.6413L11.3097 10.5858L11.2543 10.5862C11.245 10.6633 11.1354 10.7172 11.0612 10.7281L11.0863 10.8649L11.0067 10.8695L11.002 10.9492L10.9465 10.9208C10.9654 11.018 10.8927 11.0615 10.8578 11.1404L10.724 11.1144C10.6833 11.0569 10.9238 10.4621 10.9111 10.3521L10.91 10.3512ZM18.5214 14.7877C18.4327 14.7586 18.3522 14.7094 18.2539 14.6916C18.2291 14.6872 17.9225 14.7065 18.0188 14.6334C18.2346 14.601 18.4067 14.7218 18.6056 14.7733C18.6114 14.8257 18.5487 14.7966 18.5214 14.7875V14.7877Z" fill="#745F00"/>
</g>
</svg>
