<svg width="999" height="415" viewBox="0 0 999 415" fill="none" xmlns="http://www.w3.org/2000/svg">
<path d="M54.0654 226.987C50.9417 226.987 48.6589 225.904 47.2172 223.739C46.0157 221.574 45.415 219.168 45.415 216.522C45.415 213.154 46.3761 208.703 48.2985 203.17C50.2208 197.396 52.5036 191.501 55.1468 185.487C58.0302 179.472 60.6734 174.42 63.0764 170.33C67.4016 162.632 72.8081 154.693 79.296 146.513C85.7838 138.093 93.4732 130.154 102.364 122.696C112.696 114.275 123.029 107.9 133.361 103.57C143.694 98.9986 151.744 96.713 157.511 96.713C161.115 96.713 163.518 97.5551 164.719 99.2391C166.161 100.683 166.882 102.728 166.882 105.374C166.882 108.983 165.921 113.193 163.999 118.004C162.076 122.816 160.034 127.146 157.871 130.996C155.708 134.845 154.026 137.371 152.825 138.574C150.903 140.499 147.539 141.581 142.733 141.822C138.167 141.822 132.4 142.904 125.432 145.07C118.463 146.994 110.654 151.686 102.003 159.143C94.7948 165.158 88.5472 172.014 83.2608 179.713C78.2147 187.171 74.0096 194.268 70.6455 201.004C66.8009 208.462 64.0375 214.116 62.3555 217.965C60.9137 221.574 59.7123 223.98 58.7511 225.183C57.79 226.385 56.2281 226.987 54.0654 226.987ZM32.7997 363.757C23.9089 363.757 16.2196 361.23 9.73178 356.178C3.24393 351.126 0 343.067 0 332C0 323.339 1.92233 314.438 5.76698 305.296C9.85193 296.154 15.3786 287.733 22.3471 280.035C29.5558 272.336 37.966 266.201 47.5776 261.63C57.1892 256.819 67.6419 254.413 78.9356 254.413C88.3069 254.413 95.6358 257.18 100.922 262.713C106.449 268.246 109.573 275.464 110.294 284.365C113.177 294.71 119.064 302.529 127.955 307.822C137.086 313.115 146.938 315.761 157.511 315.761C170.246 315.761 181.059 312.272 189.95 305.296C198.841 298.319 203.286 288.696 203.286 276.426C203.286 269.209 201.484 262.112 197.88 255.135C194.515 248.158 189.71 242.143 183.462 237.091C177.215 231.799 169.886 227.468 161.475 224.1C153.065 220.732 144.295 217.484 135.164 214.357C132.04 213.394 130.478 210.988 130.478 207.139C130.478 203.53 131.8 199.561 134.443 195.23C137.086 190.9 140.45 187.171 144.535 184.043C148.86 180.675 153.185 178.991 157.511 178.991C166.882 178.991 175.893 181.277 184.543 185.848C193.434 190.419 201.364 196.554 208.332 204.252C215.301 211.951 220.827 220.612 224.912 230.235C229.238 239.617 231.4 249.241 231.4 259.104C231.4 275.945 227.075 291.342 218.424 305.296C209.774 319.249 198.24 330.316 183.823 338.496C169.405 346.675 153.426 350.765 135.884 350.765C124.831 350.765 115.7 348.841 108.491 344.991C101.283 340.901 95.7559 336.21 91.9113 330.917C84.222 340.059 74.9708 347.758 64.1577 354.013C53.5849 360.509 43.1322 363.757 32.7997 363.757ZM50.4611 329.113C59.1116 329.113 66.921 326.106 73.8894 320.091C80.8579 313.836 85.1831 306.499 86.8652 298.078C83.7414 294.951 80.0169 292.665 75.6916 291.222C71.3664 289.538 66.921 288.696 62.3555 288.696C54.9065 288.696 47.6977 290.861 40.7293 295.191C34.0012 299.281 30.6371 305.536 30.6371 313.957C30.6371 317.806 32.4393 321.294 36.0436 324.422C39.648 327.549 44.4538 329.113 50.4611 329.113ZM86.1443 415C79.4161 415 74.8506 412.594 72.4477 407.783C70.0448 403.212 68.8433 399.242 68.8433 395.874C68.8433 391.784 69.8045 387.093 71.7268 381.8C73.6492 376.507 75.9319 371.335 78.5751 366.283C81.4586 361.471 84.3421 357.381 87.2256 354.013C90.1091 350.645 92.512 348.961 94.4343 348.961C96.3566 348.961 98.0387 350.645 99.4804 354.013C100.922 357.381 102.124 361.471 103.085 366.283C104.286 371.094 105.127 375.785 105.608 380.357C106.329 384.928 106.689 388.416 106.689 390.822C106.689 396.836 105.007 402.37 101.643 407.422C98.279 412.474 93.1127 415 86.1443 415Z" fill="white"/>
<path d="M493.308 121.613L497.633 125.943C495.951 132.199 492.827 136.77 488.262 139.657H244.967L240.281 134.965C242.684 128.71 245.928 124.259 250.013 121.613H493.308ZM396.35 177.548L393.106 175.743C378.929 185.126 355.741 199.801 323.542 219.77C329.55 235.888 331.472 255.255 329.309 277.87C326.666 281.478 322.341 284.726 316.334 287.613C310.567 290.5 304.679 292.425 298.672 293.387C273.922 290.019 256.261 279.914 245.688 263.074C245.688 251.045 249.172 242.143 256.141 236.37C321.74 201.004 369.318 172.857 398.873 151.926C418.577 151.686 432.514 156.617 440.684 166.722L420.139 206.057L402.478 343.909C394.789 346.074 387.099 346.314 379.41 344.63C371.721 342.706 365.113 339.217 359.586 334.165L396.35 177.548ZM295.068 269.57L298.672 267.043C300.835 257.18 300.594 246.594 297.951 235.287L271.279 251.526C277.286 260.187 285.216 266.201 295.068 269.57Z" fill="white"/>
<path d="M512.977 0C519.705 0 526.794 2.64638 534.243 7.93914C541.932 12.9913 547.579 19.3667 551.183 27.0652C532.2 78.7899 520.786 110.306 516.942 121.613H576.774L581.099 125.943C579.417 132.199 576.294 136.77 571.728 139.657H512.256L511.175 160.226L486.665 343.909C478.976 346.074 471.286 346.314 463.597 344.63C455.908 342.706 449.3 339.217 443.773 334.165C449.78 309.385 464.198 244.549 487.025 139.657H446.657L441.971 134.965C444.374 128.71 447.618 124.259 451.703 121.613H490.99C500.602 77.3464 507.33 47.5145 511.175 32.1174L507.931 30.3131C488.467 43.7855 468.163 68.6855 447.017 105.013C440.049 104.532 434.041 102.607 428.995 99.2391C423.949 95.871 420.945 91.4203 419.984 85.887C430.317 67.3623 445.455 48.4768 465.399 29.2304C485.343 9.74348 501.203 0 512.977 0ZM579.297 93.8261C575.693 97.4348 571.247 99.2391 565.961 99.2391C560.675 99.2391 556.109 97.4348 552.264 93.8261C548.66 89.9768 546.858 85.4058 546.858 80.113C546.858 74.8203 548.66 70.3696 552.264 66.7609C556.109 63.1522 560.675 61.3478 565.961 61.3478C571.247 61.3478 575.693 63.2725 579.297 67.1217C582.902 70.7304 584.704 75.1812 584.704 80.4739C584.704 85.5261 582.902 89.9768 579.297 93.8261Z" fill="white"/>
<path d="M584.495 350.404C570.078 350.404 558.664 345.593 550.254 335.97C542.084 326.346 537.999 313.235 537.999 296.635C537.999 284.365 539.921 272.336 543.766 260.548C547.851 248.759 553.498 238.174 560.707 228.791C567.915 219.409 576.325 211.951 585.937 206.417C595.549 200.884 606.001 198.117 617.295 198.117C624.504 198.117 630.871 199.2 636.398 201.365C642.165 203.53 647.211 206.297 651.536 209.665C651.296 193.306 650.455 178.63 649.013 165.639C647.572 152.648 644.087 140.619 638.561 129.552C637.6 127.628 636.759 125.943 636.038 124.5C635.557 122.816 635.317 121.252 635.317 119.809C635.317 116.441 636.638 113.313 639.282 110.426C642.165 107.539 645.649 105.133 649.734 103.209C653.819 101.284 657.664 100.322 661.268 100.322C667.756 100.322 672.562 103.209 675.686 108.983C679.05 114.516 681.212 122.215 682.174 132.078C683.135 141.701 683.615 152.768 683.615 165.278C683.615 183.562 682.774 200.042 681.092 214.717C679.41 229.393 677.848 242.264 676.407 253.33C675.445 260.548 674.604 266.803 673.884 272.096C673.163 277.388 672.802 281.719 672.802 285.087C672.802 302.168 680.131 312.272 694.789 315.4C698.633 316.122 700.556 318.648 700.556 322.978C700.556 325.625 699.715 328.993 698.033 333.083C696.591 337.172 693.828 340.901 689.743 344.27C685.658 347.397 679.771 348.961 672.081 348.961C661.749 348.961 654.78 345.472 651.176 338.496C647.572 331.519 645.769 320.933 645.769 306.739C639.041 319.009 630.511 329.354 620.179 337.774C609.846 346.194 597.952 350.404 584.495 350.404ZM595.669 311.791C602.397 311.791 609.125 309.626 615.853 305.296C622.581 300.965 628.589 295.071 633.875 287.613C636.999 283.042 639.762 277.87 642.165 272.096C644.808 266.081 647.211 260.067 649.374 254.052C637.119 242.986 623.543 237.452 608.645 237.452C595.669 237.452 585.336 241.422 577.647 249.361C569.958 257.059 566.113 266.683 566.113 278.23C566.113 288.094 568.997 296.154 574.764 302.409C580.531 308.664 587.499 311.791 595.669 311.791Z" fill="white"/>
<path d="M745.509 349.683C741.664 349.683 738.541 348.961 736.138 347.517C733.975 346.314 733.254 344.149 733.975 341.022C736.618 330.677 738.781 320.212 740.463 309.626C742.385 298.8 743.346 288.455 743.346 278.591C743.346 265.841 742.505 256.578 740.823 250.804C739.382 244.79 737.339 240.7 734.696 238.535C732.053 236.129 728.809 234.325 724.964 233.122C723.282 232.4 721.72 231.438 720.278 230.235C719.077 229.032 718.476 227.348 718.476 225.183C718.476 221.814 719.798 218.086 722.441 213.996C725.084 209.906 728.809 206.417 733.615 203.53C738.42 200.403 743.947 198.839 750.195 198.839C758.365 198.839 764.011 201.726 767.135 207.5C770.499 213.033 772.181 220.371 772.181 229.513C776.507 219.89 781.793 212.312 788.041 206.778C794.528 201.004 802.578 198.117 812.19 198.117C818.678 198.117 824.084 199.561 828.409 202.448C832.735 205.335 834.897 210.026 834.897 216.522C834.897 223.017 832.735 229.152 828.409 234.926C824.324 240.459 820.119 243.226 815.794 243.226C815.073 243.226 814.232 243.106 813.271 242.865C812.31 242.625 811.469 242.023 810.748 241.061C807.624 237.212 803.78 235.287 799.214 235.287C792.246 235.287 786.118 239.858 780.832 249C775.545 258.142 772.662 270.772 772.181 286.891C772.422 292.906 772.542 299.041 772.542 305.296C772.782 311.551 772.902 316.122 772.902 319.009C772.902 327.91 770.379 335.248 765.333 341.022C760.527 346.796 753.919 349.683 745.509 349.683Z" fill="white"/>
<path d="M884.381 350.404C869.964 350.404 858.31 345.954 849.419 337.052C840.768 327.91 836.443 314.919 836.443 298.078C836.443 286.049 838.726 274.141 843.291 262.352C848.097 250.323 854.946 239.497 863.836 229.874C872.727 220.251 883.42 212.552 895.915 206.778C908.41 201.004 922.467 198.117 938.086 198.117C952.504 198.117 964.758 200.643 974.851 205.696C985.183 210.507 990.349 217.123 990.349 225.543C990.349 227.709 990.109 230.596 989.629 234.204C989.148 237.572 988.547 240.339 987.826 242.504C987.106 244.429 986.024 246.233 984.582 247.917C983.381 249.361 981.699 250.083 979.536 250.083C978.575 250.083 976.773 249.722 974.13 249C973.169 254.052 972.448 258.984 971.967 263.796C971.487 268.607 971.246 273.419 971.246 278.23C971.246 287.372 972.568 295.552 975.211 302.77C978.095 309.746 983.621 314.077 991.791 315.761C993.954 316.242 995.636 316.964 996.837 317.926C998.279 318.888 999 320.933 999 324.061C999 326.707 998.279 330.075 996.837 334.165C995.636 338.255 993.113 341.984 989.268 345.352C985.664 348.48 980.377 350.043 973.409 350.043C964.038 350.043 956.829 346.675 951.783 339.939C946.737 332.962 944.214 323.099 944.214 310.348C937.726 322.136 929.436 331.759 919.344 339.217C909.492 346.675 897.837 350.404 884.381 350.404ZM895.915 312.874C905.527 312.874 913.937 309.867 921.146 303.852C928.595 297.838 934.362 290.259 938.447 281.117C941.09 275.343 943.132 269.088 944.574 262.352C946.016 255.375 946.977 248.519 947.458 241.783C943.373 239.858 938.687 238.294 933.4 237.091C928.114 235.888 922.587 235.287 916.82 235.287C902.163 235.287 890.028 239.617 880.416 248.278C871.045 256.939 866.359 267.765 866.359 280.757C866.359 290.38 869.003 298.199 874.289 304.213C879.575 309.987 886.784 312.874 895.915 312.874Z" fill="white"/>
</svg>
