<svg width="240" height="240" viewBox="0 0 240 240" fill="none" xmlns="http://www.w3.org/2000/svg">
<rect width="240" height="240" rx="120" fill="#EDE9DE"/>
<path d="M180 80.0001C180 68.9543 171.046 60 160 60H140V99.9999C140 77.9087 122.091 60 99.9999 60C77.9087 60 60 77.9087 60 99.9999H99.9999C77.9087 99.9999 60 117.909 60 140C60 162.091 77.9087 180 99.9999 180V140H120C131.046 140 140 131.046 140 120C140 108.954 131.046 99.9999 120 99.9999H140H160C171.046 99.9999 180 91.0457 180 80.0001Z" fill="black"/>
</svg>
