<svg width="24" height="24" viewBox="0 0 24 24" fill="none" xmlns="http://www.w3.org/2000/svg">
<g clip-path="url(#clip0_3189_23)">
<mask id="mask0_3189_23" style="mask-type:luminance" maskUnits="userSpaceOnUse" x="0" y="0" width="24" height="24">
<path d="M24 12C24 5.37258 18.6274 0 12 0C5.37258 0 0 5.37258 0 12C0 18.6274 5.37258 24 12 24C18.6274 24 24 18.6274 24 12Z" fill="white"/>
</mask>
<g mask="url(#mask0_3189_23)">
<path d="M24 12C24 5.37258 18.6274 0 12 0C5.37258 0 0 5.37258 0 12C0 18.6274 5.37258 24 12 24C18.6274 24 24 18.6274 24 12Z" fill="#FFF4C6"/>
<path fill-rule="evenodd" clip-rule="evenodd" d="M19.6646 16.1438C19.4501 16.1649 19.2356 16.1859 19.0211 16.207C17.9936 16.2855 16.9666 16.4494 15.9471 16.5478C15.9217 16.5065 15.872 16.5133 15.8418 16.542C15.7401 16.5331 15.6261 16.4553 15.5339 16.5362C15.5309 16.5358 15.5279 16.5353 15.5249 16.535C15.3608 16.2201 15.2474 15.8841 15.1373 15.5477C15.067 15.3409 14.9725 15.1407 14.7978 15.0018C14.4997 14.7949 13.8166 14.3752 13.4665 14.3928C13.4607 14.3301 13.4315 14.2655 13.3835 14.2238C13.4893 14.0435 13.0665 13.9259 13.0367 13.9468C13.0558 13.3444 12.7725 12.8214 12.1478 12.7014C11.5882 12.5848 10.7922 12.5652 10.4912 13.1501C10.4581 13.1464 10.1199 13.1446 10.0872 13.1483C10.0363 13.0838 9.47763 13.6945 9.7066 13.9071C7.65933 14.8128 6.49523 14.7047 5.92856 17.251C5.85196 17.4902 5.8464 17.752 5.7655 17.9858C5.4777 18.6579 5.24426 19.3736 5.1862 20.1049C5.04586 20.1408 5.02973 20.3882 5.19226 20.424C5.25433 20.4377 5.30626 20.4564 5.35153 20.4918C5.31613 21.0911 5.46106 22.4601 5.55236 22.4559C5.73856 23.0485 6.5691 23.2158 7.15706 23.0075C7.0557 23.1982 7.15706 23.3181 7.15706 23.42C9.27276 23.5001 11.5861 23.454 13.7012 23.5638C13.9718 23.5599 14.2564 23.6302 14.5232 23.5898C14.686 23.5508 14.6862 23.2948 14.5212 23.2632L15.2425 23.1065C15.2264 23.1004 15.5398 22.8919 15.7767 22.5023C15.9972 22.0664 15.8471 21.5402 15.9471 21.0661C16.7274 21.0023 17.5207 20.975 18.2926 20.8428C18.3978 21.1577 18.8534 20.7811 18.9982 20.6296C18.998 20.6294 18.9978 20.6292 18.9976 20.6289C19.0677 20.6097 19.1239 20.5441 19.1258 20.4663C19.175 20.3961 19.1853 20.2971 19.1381 20.2292C19.3542 18.9826 19.6835 17.7098 19.8025 16.4515C19.8446 16.4422 19.8842 16.4237 19.9178 16.3953L19.9151 16.3926C19.972 16.3291 19.9831 16.2196 19.8882 16.1656C19.8116 16.1221 19.7477 16.1356 19.6646 16.1438Z" fill="#FFC497"/>
<path fill-rule="evenodd" clip-rule="evenodd" d="M11.5057 20.8095L11.6709 20.9146L13.023 21.3504L13.8493 21.4555L14.5254 21.3504V22.5073L14.6606 23.5891C14.6005 23.6993 14.0296 23.6993 12.9479 23.5891C12.2584 23.5189 9.73822 23.4848 9.16446 23.4698L9.13196 23.4689C8.45769 23.4494 7.79166 23.4494 7.13382 23.4689V23.0632L9.01175 22.1317L10.6944 21.1851L11.5057 20.8095ZM10.5476 13.0555L10.6718 13.1483L10.4007 13.5938L11.7214 14.6622V15.5156L12.1396 15.9111L12.3786 15.5156L12.7153 15.0677L12.9547 14.3416L12.8732 13.8633L13.0371 13.8478C13.0379 13.8805 13.0377 13.9135 13.0367 13.9468C13.0665 13.9259 13.4893 14.0435 13.3835 14.2238C13.4315 14.2655 13.4607 14.3301 13.4665 14.3928C13.8166 14.3752 14.4997 14.7949 14.7978 15.0018C14.9725 15.1407 15.067 15.3409 15.1373 15.5477L15.1538 15.5982L15.1709 15.65L15.1881 15.7017C15.2832 15.9862 15.3859 16.2682 15.5249 16.535C15.5279 16.5353 15.5309 16.5358 15.5339 16.5362C15.6261 16.4553 15.7401 16.5331 15.8418 16.542C15.8713 16.514 15.9194 16.5068 15.9452 16.545L15.9471 16.5478L14.6795 16.7975L13.8433 19.7311L13.1151 19.1399L12.7242 19.198L11.6919 19.5704L10.4914 19.8823L7.75062 20.6379H7.40159L5.37066 20.1475L5.18762 20.087C5.24806 19.3619 5.48002 18.6524 5.76549 17.9858C5.84639 17.752 5.85196 17.4902 5.92856 17.251C6.49522 14.7047 7.65932 14.8128 9.70659 13.9071C9.47762 13.6945 10.0363 13.0838 10.0872 13.1483L10.0904 13.148L10.0974 13.1476L10.1063 13.1473C10.1862 13.145 10.4615 13.1468 10.4912 13.1501C10.5084 13.1166 10.5273 13.0851 10.5476 13.0555Z" fill="#FFE984"/>
<path fill-rule="evenodd" clip-rule="evenodd" d="M19.8672 16.2329L19.8295 16.4433C19.8205 16.4463 19.8113 16.4487 19.8021 16.4508C19.7902 16.5762 19.7763 16.7018 19.7606 16.8275L19.5265 18.1323C19.4861 18.3631 19.4478 18.5944 19.4097 18.8258L19.3593 19.0744L19.3281 19.2289C19.2607 19.5634 19.1952 19.8969 19.1377 20.2285C19.1464 20.241 19.1531 20.2545 19.158 20.2687L19.1536 20.2874L19.1505 20.2999L19.1474 20.3122C19.1021 20.4865 19.0232 20.6555 18.8373 20.7068C18.697 20.7455 18.5432 20.749 18.3984 20.7643L18.3823 20.766L15.8485 21.051C15.5423 21.0854 15.2363 21.1209 14.9303 21.1567L14.665 21.1878C14.2953 21.2307 13.9234 21.2644 13.5591 21.3419C13.5458 21.3447 13.5347 21.3501 13.5256 21.3571C13.599 21.0794 13.6692 20.802 13.7328 20.5215C13.8045 20.2058 13.8725 19.8895 13.9491 19.5749C14.1034 18.9411 14.2764 18.3115 14.4659 17.6874C14.5056 17.5564 14.5463 17.4256 14.5878 17.2952L14.617 17.204L14.6394 17.1313C14.6742 17.0205 14.7172 16.9067 14.819 16.8456C14.9382 16.774 15.1007 16.7622 15.2359 16.7375L15.3275 16.7203C15.4644 16.6947 15.6015 16.6701 15.7388 16.6465C16.3962 16.5334 17.0573 16.4427 17.7208 16.3746C18.4113 16.3037 19.1041 16.2576 19.7978 16.2351L19.8672 16.2329ZM13.5781 20.5833L13.5846 20.5838L13.4899 21.3405C13.4748 21.3299 13.4556 21.3234 13.4321 21.3235C13.1217 21.3244 12.8241 21.2252 12.5362 21.1161L12.4924 21.0994L12.3702 21.0524C12.246 21.0048 12.1211 20.9582 11.9939 20.9196L11.9424 20.9041L11.9163 20.8964C11.82 20.8683 11.7186 20.8427 11.6184 20.8363L11.6048 20.8356L11.634 20.8203C11.6382 20.818 11.642 20.8155 11.6453 20.8128C11.7004 20.8169 11.7557 20.8158 11.8139 20.8053C11.9233 20.7856 12.0297 20.7475 12.1273 20.6946L12.171 20.6709L12.1888 20.6614L12.2006 20.6553L12.2124 20.6494C12.2963 20.6076 12.3765 20.5814 12.4824 20.6036C12.6027 20.629 12.708 20.6938 12.8164 20.7485L12.8357 20.7581L12.8486 20.7644L12.8618 20.7706L12.8751 20.7767C13.0217 20.8426 13.255 20.9138 13.3112 20.7145C13.3338 20.6344 13.3161 20.5594 13.2769 20.4937C13.3499 20.4874 13.4804 20.5735 13.5781 20.5833Z" fill="white"/>
<path fill-rule="evenodd" clip-rule="evenodd" d="M10.5302 13.0143C10.594 12.8541 10.8094 12.9164 10.7854 13.0847C10.771 13.1855 10.7158 13.292 10.6662 13.3803C10.6259 13.4523 10.5798 13.5225 10.5173 13.5764C10.6285 13.6801 10.7439 13.78 10.8622 13.8749C10.9913 13.9785 11.1271 14.0739 11.2675 14.1616C11.3905 14.2386 11.5191 14.3067 11.6351 14.3945C11.743 14.4761 11.8412 14.5742 11.8912 14.7023C11.9445 14.8388 11.9213 14.9797 11.8821 15.116L11.8776 15.1314C11.8375 15.2665 11.7682 15.4293 11.8644 15.5566C11.9133 15.6214 11.9845 15.6673 12.046 15.7191C12.1006 15.7651 12.1519 15.8152 12.1989 15.8689C12.3014 15.9862 12.3848 16.1181 12.4374 16.265L12.4422 16.2784C12.4873 16.4085 12.5202 16.5679 12.4593 16.6956C12.4418 16.7322 12.3854 16.7203 12.3756 16.6847C12.3535 16.6039 12.3546 16.5193 12.336 16.4374C12.3167 16.3522 12.2846 16.2714 12.2426 16.1948C12.1613 16.0468 12.0513 15.9204 11.9213 15.8135L11.8824 15.7819C11.781 15.6986 11.6878 15.6103 11.6672 15.4726C11.6452 15.3252 11.7042 15.1848 11.7422 15.0453C11.7687 14.9481 11.7773 14.8549 11.7487 14.7671C11.7138 14.8241 11.6661 14.8782 11.6284 14.9265C11.5534 15.0227 11.4776 15.1183 11.402 15.214C11.3245 15.3122 11.2489 15.412 11.1769 15.5143C11.1448 15.5601 11.1129 15.6061 11.0812 15.6522C11.0573 15.6869 11.024 15.7215 10.998 15.7568C11.0043 15.7758 11.0038 15.7975 10.9924 15.813C10.8544 15.9995 10.6581 15.6104 10.6069 15.5121C10.5026 15.3119 10.425 15.0993 10.3204 14.8991C10.212 14.6917 10.0886 14.4897 9.95099 14.3003C9.86776 14.1858 9.77449 14.0782 9.69839 13.96C9.51902 14.1226 9.28306 14.2316 9.06629 14.3305C8.82813 14.4391 8.58073 14.5278 8.33653 14.622L8.26439 14.6501C7.84366 14.8143 7.41266 14.9947 7.06296 15.2864C6.65202 15.6291 6.40892 16.1069 6.22792 16.6016C6.01959 17.1711 5.84722 17.756 5.68652 18.3405C5.60432 18.6396 5.52629 18.94 5.45296 19.2414C5.38832 19.5069 5.33476 19.7751 5.25992 20.0379C5.41166 20.0325 5.58472 20.0912 5.71426 20.1082C6.30469 20.1855 6.88712 20.3087 7.44456 20.522C7.51339 20.5484 7.53332 20.6171 7.51832 20.6729C7.55806 20.6617 7.59772 20.6503 7.63742 20.6392C7.59392 20.5725 7.61469 20.4533 7.61809 20.3794L7.61832 20.3743C7.62182 20.2759 7.63253 20.1773 7.63943 20.079C7.65263 19.8917 7.66979 19.7057 7.69262 19.5195L7.69846 19.4729C7.72432 19.2702 7.74346 19.0664 7.77169 18.8641L7.77502 18.8409C7.76146 18.7892 7.74572 18.738 7.72916 18.6871C7.68509 18.5515 7.62289 18.4239 7.56836 18.2925C7.56192 18.2771 7.58396 18.2682 7.59426 18.2775C7.68659 18.3605 7.75992 18.4659 7.81886 18.5762C7.81986 18.571 7.82076 18.5657 7.82183 18.5605L7.82856 18.5274C7.84516 18.4467 7.86532 18.3618 7.91482 18.2963C7.92009 18.2894 7.93052 18.2879 7.93549 18.2963C7.98289 18.3765 7.98819 18.4781 7.99549 18.5693C8.00372 18.6726 8.00476 18.7771 8.00329 18.8806C8.00046 19.0829 7.98622 19.2857 7.97486 19.4877C7.96372 19.6861 7.94183 19.8821 7.91363 20.0786L7.90826 20.1154C7.89449 20.209 7.88319 20.3036 7.86502 20.3965L7.85989 20.4218C7.85016 20.4679 7.84419 20.5328 7.82482 20.5868C8.32269 20.4479 8.82129 20.3122 9.32086 20.1789C9.68193 20.0825 10.0434 19.9876 10.4046 19.8921C10.4237 19.8577 10.4474 19.8256 10.4771 19.7969C10.5747 19.7024 10.704 19.6602 10.8227 19.733C10.8323 19.7389 10.8331 19.754 10.8227 19.7598C10.7999 19.7722 10.7772 19.7849 10.7548 19.7982L10.9717 19.7395C11.1339 19.6955 11.298 19.6406 11.4639 19.61C11.7696 19.4591 12.0984 19.3499 12.4204 19.242L12.4583 19.2291C12.6232 19.1729 12.7938 19.11 12.9641 19.0788C13.0888 19.056 13.2352 19.0835 13.2854 19.2113C13.3488 19.2531 13.4086 19.3023 13.4662 19.3507C13.5079 19.3856 13.5478 19.4228 13.5885 19.459L13.596 19.4655C13.6292 19.4944 13.6555 19.5137 13.6636 19.5595C13.6678 19.5832 13.6528 19.6153 13.6236 19.6121C13.5342 19.6025 13.4615 19.4989 13.4008 19.437C13.354 19.3892 13.3068 19.3397 13.264 19.2871C13.2391 19.3007 13.2049 19.2983 13.1891 19.2682C13.1068 19.1124 12.8814 19.2204 12.7567 19.2573L12.5781 19.3102C12.4888 19.3367 12.3995 19.3633 12.3104 19.3904C12.0655 19.4647 11.8217 19.548 11.5745 19.6163C11.5967 19.6406 11.5936 19.6839 11.5516 19.7003C11.3581 19.7762 11.1459 19.8155 10.9449 19.8676C10.818 19.9005 10.6912 19.9336 10.5644 19.9669C10.5426 20.0022 10.527 20.042 10.5204 20.0884C10.4962 20.2589 10.5429 20.4557 10.5883 20.6206L10.5952 20.6453C10.6325 20.7779 10.6875 20.9404 10.8019 21.0242C10.8298 21.0446 10.8654 21.0588 10.9013 21.062C11.1252 20.9467 11.3491 20.8315 11.5732 20.7164C11.6147 20.6951 11.6531 20.724 11.6624 20.7583C11.7414 20.7453 11.8202 20.7249 11.892 20.7005C12.0127 20.6595 12.1069 20.5814 12.22 20.5273C12.4388 20.4228 12.6623 20.5512 12.8582 20.6488L12.9034 20.671C12.9912 20.7137 13.174 20.7956 13.2162 20.679C13.2569 20.5662 13.128 20.4456 13.0448 20.3948C12.9455 20.3343 12.83 20.3019 12.7178 20.2749C12.6538 20.2595 12.5889 20.2469 12.5237 20.2377C12.4497 20.2273 12.3733 20.2289 12.3021 20.2049C12.2667 20.193 12.2613 20.1368 12.3021 20.1275C12.4117 20.1025 12.5426 20.1298 12.657 20.1576L12.7168 20.1723C12.8321 20.2006 12.9485 20.2361 13.0535 20.2925C13.1298 20.3336 13.2104 20.3959 13.2631 20.4723C13.3088 20.4298 13.3657 20.4312 13.4249 20.447L13.4571 20.4559C13.5102 20.4706 13.5533 20.4808 13.605 20.4706C13.6119 20.433 13.6189 20.3954 13.6264 20.3577C13.7001 19.9879 13.7808 19.6195 13.87 19.253C14.0237 18.621 14.2016 17.9958 14.4022 17.3771L14.4223 17.3153C14.4686 17.1738 14.5058 17.0196 14.5804 16.8896C14.6509 16.7666 14.7639 16.6958 14.8982 16.6583C15.0506 16.6158 15.2107 16.5935 15.3661 16.5647C15.4008 16.5583 15.4355 16.5523 15.4702 16.546C15.4409 16.493 15.419 16.4329 15.3993 16.3868L15.3958 16.3788C15.3535 16.2822 15.3154 16.1838 15.2787 16.085L15.2512 16.0107C15.1848 15.8317 15.1163 15.6557 15.0231 15.4883C14.9249 15.3122 14.7946 15.1681 14.6322 15.0489C14.3011 14.8059 13.9021 14.6819 13.5809 14.4222C13.5678 14.4116 13.5846 14.3934 13.598 14.4001C13.8148 14.5091 14.0489 14.5831 14.2744 14.6718L14.3189 14.6894C14.4972 14.7601 14.6782 14.837 14.8325 14.9514C15.0045 15.079 15.14 15.2375 15.2419 15.4259C15.3422 15.6116 15.4064 15.8195 15.4772 16.0179L15.4961 16.0708C15.5247 16.1501 15.5542 16.2291 15.588 16.3062C15.6148 16.3675 15.6649 16.4374 15.6877 16.5073C15.7499 16.4965 15.8122 16.4857 15.8745 16.4753C17.2246 16.2499 18.5898 16.1174 19.9581 16.0787C20.0116 16.0771 20.0393 16.1282 20.0314 16.1749C19.9001 16.9514 19.7834 17.7306 19.6554 18.5077C19.5995 18.8468 19.5425 19.1858 19.4842 19.5245C19.4546 19.6961 19.4204 19.8671 19.3925 20.0389C19.3699 20.1777 19.3535 20.3176 19.3147 20.4532C19.2799 20.5748 19.2265 20.692 19.1388 20.7847C19.0443 20.8847 18.9123 20.9331 18.7795 20.956C18.4424 21.014 18.0966 21.0377 17.7567 21.0764L15.9472 21.2822C15.9736 21.5226 15.9756 21.7593 15.9634 22.0024L15.9565 22.1352C15.9509 22.242 15.9441 22.3489 15.9288 22.4546C15.9096 22.5872 15.8489 22.6994 15.7596 22.7984C15.6776 22.8894 15.578 22.9669 15.481 23.0413C15.3804 23.1185 15.2765 23.193 15.1582 23.2407L15.1429 23.2468C15.0391 23.2873 14.8444 23.3501 14.7026 23.3272C14.7212 23.4201 14.757 23.5199 14.7252 23.6119C14.7105 23.6545 14.6547 23.6758 14.6205 23.6395C14.5527 23.5675 14.5474 23.4725 14.5314 23.3786C14.5147 23.2808 14.5003 23.1828 14.4875 23.0845C14.4628 22.8944 14.4435 22.7025 14.4377 22.5109C14.4316 22.314 14.434 22.1169 14.4446 21.9202C14.45 21.8192 14.4568 21.7183 14.4696 21.618C14.4751 21.5752 14.4807 21.5324 14.487 21.4897C14.4894 21.4741 14.492 21.4586 14.4947 21.4432L14.3323 21.4615C14.0833 21.4893 13.8341 21.5144 13.5833 21.5183C13.5536 21.5188 13.5308 21.5052 13.5158 21.4855C13.4999 21.5115 13.4722 21.53 13.4325 21.5298C13.0823 21.5285 12.7561 21.414 12.4376 21.279C12.277 21.211 12.1189 21.1373 11.9581 21.0698C11.808 21.0068 11.6476 20.9619 11.5011 20.8909L11.1162 21.0928C11.1134 21.1028 11.1097 21.1122 11.1059 21.12C11.0808 21.1712 11.0314 21.1989 10.981 21.2198C10.9325 21.2399 10.8824 21.2462 10.8335 21.2411C10.5416 21.3941 10.2496 21.5469 9.95742 21.6994L9.66516 21.8518C9.08293 22.1549 8.50296 22.4631 7.91706 22.7592L7.87392 22.7809C7.67156 22.8824 7.45423 22.9853 7.22966 23.062C7.22566 23.1189 7.22816 23.1742 7.23292 23.2343L7.23409 23.2475C7.24079 23.3186 7.25512 23.4077 7.19809 23.4583C7.16842 23.4846 7.11542 23.4847 7.09526 23.445C7.05862 23.373 7.09149 23.2596 7.10309 23.1814C7.10722 23.1535 7.11222 23.1249 7.11966 23.0972C6.86219 23.1739 6.59692 23.211 6.33489 23.168C6.07979 23.1261 5.88222 22.9654 5.72296 22.7688C5.55486 22.5614 5.43539 22.3196 5.37132 22.0604C5.29839 21.7655 5.29362 21.461 5.29532 21.1589C5.29716 20.8372 5.30906 20.5139 5.34816 20.1944C5.30529 20.1844 5.25776 20.1756 5.21446 20.1786C5.19299 20.213 5.15139 20.2274 5.11379 20.223C5.03202 20.3132 5.23942 20.4053 5.30569 20.4284C5.32872 20.4364 5.32626 20.4738 5.29972 20.4727L5.28299 20.4719C5.18056 20.4665 5.07476 20.449 5.01452 20.3538C4.96629 20.2775 4.98079 20.1871 5.03829 20.1249C5.07629 19.7656 5.16712 19.4157 5.25166 19.0653C5.33462 18.7213 5.42689 18.3795 5.52466 18.0394L5.56852 17.8872C5.72249 17.354 5.88342 16.8165 6.09579 16.3045C6.20186 16.0488 6.32402 15.7978 6.48962 15.5749C6.64399 15.3671 6.82622 15.1893 7.03572 15.0374C7.42626 14.7542 7.88453 14.5831 8.33476 14.4201L8.35493 14.4128C8.58826 14.3284 8.82099 14.243 9.05169 14.1516C9.25569 14.0707 9.45112 13.9681 9.65416 13.886C9.64756 13.8741 9.64119 13.862 9.63506 13.8497L9.63133 13.8529C9.63066 13.8534 9.63003 13.8539 9.62933 13.8543C9.60893 13.8685 9.57886 13.8615 9.56202 13.8457C9.51452 13.8008 9.53059 13.751 9.56232 13.7046L9.56643 13.6986C9.60523 13.6443 9.63983 13.5868 9.67563 13.5305L9.69806 13.4953C9.75816 13.4012 9.82129 13.3065 9.90142 13.2288C9.93852 13.1927 9.97916 13.1658 10.0222 13.1457C10.0185 13.1379 10.0508 13.122 10.0599 13.13C10.1963 13.0801 10.3532 13.0905 10.5019 13.1043M15.8596 21.2922L15.67 21.3138C15.4614 21.3375 15.2528 21.3604 15.0441 21.3832L14.5908 21.4324C14.5896 21.4583 14.5865 21.4836 14.5859 21.5031C14.5829 21.6037 14.5807 21.7044 14.5786 21.805C14.5744 22.0068 14.579 22.2087 14.5923 22.4101C14.6052 22.6052 14.6222 22.8003 14.6485 22.9941L14.6539 23.0329L14.657 23.0533C14.6785 23.0553 14.6996 23.0656 14.7172 23.0865C14.7555 23.1323 14.8944 23.0878 14.9486 23.0685C15.0378 23.0368 15.1217 22.9832 15.1992 22.9294C15.2749 22.8769 15.343 22.8157 15.4085 22.7512L15.462 22.6983C15.5153 22.6453 15.5687 22.5889 15.6013 22.5223C15.6456 22.4319 15.6513 22.3211 15.6643 22.2227C15.6803 22.1017 15.6993 21.9807 15.7194 21.8603M10.3557 20.022L10.336 20.0271C9.62163 20.217 8.90829 20.4124 8.19173 20.5939C7.83713 20.6837 7.48082 20.767 7.12576 20.8551L7.06829 20.8694C6.78819 20.9402 6.50472 21.0254 6.29022 21.2286C6.28232 21.2361 6.27082 21.2246 6.27829 21.2167C6.50946 20.9706 6.83822 20.8664 7.15389 20.7761C7.21226 20.7594 7.27066 20.7431 7.32902 20.7265C6.89972 20.5734 6.46366 20.4402 6.01749 20.3453C5.90259 20.3208 5.78639 20.3028 5.67159 20.2783C5.59152 20.2612 5.51336 20.2364 5.43412 20.2159L5.37182 20.2002L5.37099 20.3971C5.36996 20.6761 5.37046 20.9548 5.38469 21.2337L5.38739 21.2853C5.40399 21.5957 5.42989 21.9125 5.54002 22.2052C5.62952 22.443 5.77216 22.667 5.95872 22.8403C6.05312 22.9279 6.15459 22.9961 6.28002 23.0298C6.39652 23.0611 6.51856 23.0648 6.63829 23.0564C7.21262 23.0163 7.72386 22.7043 8.22276 22.446C9.03879 22.0234 9.85493 21.6011 10.6718 21.1802C10.6497 21.1651 10.6289 21.1477 10.61 21.1281C10.5005 21.015 10.4427 20.8601 10.4047 20.7101C10.3643 20.5505 10.3402 20.3793 10.3374 20.2145M11.395 21.3433C11.4023 21.3394 11.4106 21.3443 11.4109 21.3524C11.4135 21.4148 11.379 21.4763 11.3532 21.5325L11.3505 21.5385C11.3192 21.6082 11.2849 21.6769 11.2495 21.7445C11.1787 21.8796 11.105 22.0132 11.0282 22.145C10.8737 22.41 10.702 22.6639 10.4991 22.8947C10.4533 22.9468 10.3779 22.88 10.4073 22.8239C10.5491 22.5533 10.7144 22.2978 10.8846 22.0445C10.9698 21.9177 11.055 21.7907 11.141 21.6645C11.1769 21.6118 11.2132 21.5593 11.2506 21.5076L11.2731 21.4767M19.8676 16.2336C19.1507 16.2553 18.4347 16.302 17.7212 16.3753C17.0577 16.4435 16.3966 16.5342 15.7392 16.6472C15.6019 16.6709 15.4648 16.6954 15.3279 16.721L15.2457 16.7364C15.1087 16.7624 14.9414 16.7731 14.8194 16.8463C14.6908 16.9235 14.6561 17.0847 14.6133 17.2177C14.563 17.3741 14.514 17.5309 14.4663 17.6881C14.2768 18.3123 14.1038 18.9419 13.9495 19.5756C13.8729 19.8902 13.8049 20.2065 13.7332 20.5223C13.6696 20.8028 13.5994 21.0801 13.526 21.3578C13.5351 21.3508 13.5462 21.3455 13.5595 21.3426C13.9238 21.2651 14.2957 21.2314 14.6654 21.1886L14.7012 21.1844C15.0837 21.1394 15.4662 21.0948 15.8489 21.0517L18.3827 20.7668C18.5321 20.75 18.6922 20.7477 18.8377 20.7076C19.0849 20.6394 19.1429 20.3629 19.1843 20.1427L19.1856 20.1361C19.3107 19.4709 19.4102 18.7999 19.5269 18.133M13.585 20.5846C13.4866 20.5781 13.352 20.488 13.2773 20.4944C13.3165 20.5602 13.3342 20.6352 13.3116 20.7153C13.2488 20.9381 12.9646 20.8228 12.8277 20.7547C12.7154 20.6989 12.6071 20.6305 12.4828 20.6044C12.342 20.5748 12.2467 20.6308 12.1277 20.6953C12.0301 20.7483 11.9237 20.7863 11.8143 20.806C11.7561 20.8165 11.7008 20.8176 11.6457 20.8136C11.6424 20.8163 11.6386 20.8188 11.6344 20.821L11.6052 20.8363C11.7371 20.8424 11.8715 20.8831 11.9943 20.9204C12.1215 20.959 12.2464 21.0055 12.3706 21.0531L12.4928 21.1001C12.7943 21.2155 13.1063 21.3252 13.4325 21.3242C13.456 21.3242 13.4752 21.3306 13.4903 21.3412M13.0346 19.8863C13.1318 19.8744 13.2215 19.8871 13.2991 19.9504C13.3928 20.0267 13.4557 20.1533 13.5904 20.1616C13.6296 20.164 13.6387 20.2192 13.5997 20.2307C13.4995 20.2604 13.4184 20.2062 13.3501 20.1358L13.3042 20.0878C13.2367 20.0179 13.1744 19.9639 13.06 19.9681C12.9373 19.9725 12.8145 20.0009 12.6927 20.0153C12.5547 20.0316 12.4167 20.0455 12.2782 20.0575C12.2718 20.0581 12.2707 20.048 12.2767 20.0465L12.4318 20.0079M12.9408 19.4889L12.9568 19.4873C13.0979 19.4736 13.227 19.4731 13.353 19.549L13.3772 19.5636C13.4908 19.6327 13.6145 19.7141 13.6856 19.8259C13.6972 19.8442 13.678 19.8658 13.6586 19.8611C13.522 19.8283 13.4221 19.7281 13.3073 19.6531C13.1784 19.5689 13.0452 19.5828 12.8982 19.5959C12.7559 19.6086 12.6137 19.626 12.4728 19.6497C12.3404 19.672 12.2076 19.7071 12.0738 19.7183L12.0739 19.7181C12.0586 19.718 12.0499 19.6951 12.0655 19.6873C12.2012 19.6195 12.3584 19.5874 12.506 19.5565M8.10829 15.6511C8.10809 15.6399 8.12379 15.6357 8.12929 15.6454C8.22113 15.8069 8.26912 16.005 8.31802 16.183C8.36926 16.3694 8.41063 16.5578 8.44776 16.7475C8.52303 17.1317 8.56313 17.5137 8.56586 17.9053C8.56623 17.9612 8.47516 17.9761 8.46622 17.9188C8.40709 17.5379 8.35042 17.1566 8.29082 16.7758C8.26082 16.5843 8.22592 16.3935 8.19252 16.2026M9.01733 15.9325C9.01056 15.9102 9.04299 15.9027 9.05129 15.9231C9.23556 16.3755 9.29796 16.8882 9.17966 17.3654C9.16156 17.4384 9.05463 17.4068 9.06829 17.3347M11.3943 15.5305C11.3934 15.5138 11.415 15.5112 11.4232 15.5227C11.5105 15.6457 11.5467 15.8105 11.6999 15.8741C11.7764 15.9058 11.8625 15.9003 11.93 15.9539C11.9752 15.9898 12.0099 16.0464 11.976 16.1007C11.965 16.1183 11.9344 16.127 11.9196 16.108C11.8979 16.0802 11.8864 16.0469 11.857 16.0261C11.8155 15.9967 11.7595 15.9949 11.7119 15.9811C11.6504 15.9633 11.5961 15.932 11.5517 15.8856M12.8531 13.4783C12.8621 13.4737 12.8707 13.4767 12.8765 13.4844C12.8847 13.4955 12.8837 13.5063 12.8736 13.5139C12.887 13.5414 12.9029 13.6102 12.9052 13.6203C12.9144 13.6609 12.9242 13.7013 12.9344 13.7416C12.955 13.823 12.9731 13.9051 12.9938 13.9865C13.0157 14.0728 13.0418 14.1582 13.0708 14.2423C13.0727 14.2478 13.0748 14.2533 13.0769 14.259L13.0802 14.2675L13.081 14.2662C13.0869 14.2569 13.0992 14.2634 13.0978 14.2733C13.0964 14.2822 13.0946 14.2912 13.0931 14.3002L13.0961 14.3082C13.1151 14.3593 13.1281 14.4132 13.0933 14.4583C13.0802 14.4752 13.0659 14.4852 13.048 14.4882C13.0193 14.5827 12.9834 14.6754 12.9449 14.7645L12.9336 14.7905C12.8769 14.9205 12.8165 15.0487 12.7264 15.1594C12.6279 15.2802 12.4925 15.3627 12.4067 15.495C12.3668 15.5566 12.339 15.6213 12.3165 15.6909L12.308 15.7173C12.292 15.7665 12.2736 15.8141 12.2274 15.843C12.2127 15.8522 12.1906 15.8492 12.1788 15.8367C12.0842 15.7366 12.1832 15.5497 12.2403 15.4528C12.3195 15.3181 12.4343 15.2319 12.5492 15.1302C12.6731 15.0207 12.7521 14.8741 12.8285 14.7297C12.8753 14.6412 12.9205 14.5508 12.9681 14.462C12.9184 14.418 12.9025 14.3308 12.8857 14.2701L12.8841 14.2646C12.8563 14.1675 12.8342 14.0678 12.8202 13.9677C12.8067 13.8714 12.8011 13.7766 12.8047 13.6798L12.8057 13.6551M13.0379 13.9365C13.0269 13.9214 13.0451 13.9043 13.0602 13.9075C13.1518 13.9264 13.2413 13.9819 13.3236 14.0267L13.3323 14.0315C13.398 14.0669 13.464 14.1103 13.4985 14.179C13.536 14.2538 13.5329 14.3399 13.5278 14.4211L13.5273 14.4287C13.521 14.5261 13.52 14.6273 13.4994 14.723C13.4889 14.7719 13.4445 14.7857 13.4066 14.7741C13.3615 14.9165 13.2348 15.0215 13.1423 15.1339C13.0243 15.2771 13.0465 15.4706 13.0588 15.6432C13.0638 15.713 12.9769 15.7329 12.9322 15.6956L12.829 15.6099C12.8118 15.5956 12.7947 15.5813 12.7776 15.5669C12.7629 15.5546 12.7484 15.5422 12.734 15.5296L12.7125 15.5106C12.703 15.5021 12.6609 15.455 12.6486 15.4531C12.6188 15.4484 12.548 15.5269 12.5237 15.5515L12.5207 15.5546C12.4751 15.5993 12.4339 15.6475 12.3955 15.6985C12.3884 15.7079 12.3746 15.7001 12.3796 15.6893C12.414 15.6156 12.454 15.5451 12.5015 15.4792L12.5111 15.4661C12.5427 15.4235 12.5851 15.3483 12.6409 15.3357C12.709 15.3204 12.777 15.3887 12.8265 15.4266L12.8297 15.429C12.8532 15.4466 12.8765 15.4646 12.8998 15.4828C12.8974 15.3543 12.9136 15.2245 12.9799 15.1138C13.0267 15.0357 13.0967 14.9778 13.1567 14.9107C13.2235 14.836 13.2583 14.7442 13.3187 14.6664C13.3265 14.6564 13.3372 14.651 13.3489 14.6493C13.3512 14.5867 13.3604 14.5235 13.3675 14.4616L13.3696 14.4431C13.3768 14.3759 13.3938 14.2937 13.3609 14.2308C13.3298 14.1713 13.2584 14.1293 13.2056 14.089L13.1625 14.0555M10.0645 13.2255C10.0369 13.2415 10.0112 13.2613 9.98776 13.2861C9.91412 13.3642 9.86149 13.4614 9.81026 13.555C9.78266 13.6053 9.75609 13.6562 9.72826 13.7065C9.71619 13.7283 9.70373 13.75 9.69116 13.7716C9.68536 13.7815 9.66806 13.8013 9.65953 13.8135C9.66903 13.8268 9.67886 13.8399 9.68889 13.8529C9.69272 13.8579 9.95686 14.1456 10.0489 14.2582C10.1899 14.4307 10.3159 14.6129 10.4237 14.808C10.5292 14.9989 10.6095 15.2011 10.7072 15.3958C10.7561 15.4933 10.8107 15.5901 10.8804 15.6744C10.8831 15.6777 10.8859 15.6808 10.8886 15.6841C10.9152 15.6123 10.9833 15.5354 11.0168 15.4912L11.0199 15.4871C11.0957 15.3848 11.1759 15.2856 11.2577 15.1881C11.3325 15.0991 11.4091 15.012 11.4876 14.9263L11.5172 14.8943C11.5719 14.8352 11.6413 14.7468 11.7214 14.7045C11.7128 14.6892 11.7029 14.6741 11.6915 14.6592C11.6165 14.5611 11.5104 14.49 11.4058 14.4258L11.3379 14.3845C11.0821 14.2286 10.8302 14.0654 10.6081 13.8629C10.4906 13.7557 10.3748 13.6434 10.276 13.5184L10.2411 13.4742M10.4914 13.1483C10.3716 13.1584 10.2422 13.156 10.1315 13.195C10.2299 13.2881 10.3235 13.3885 10.4196 13.4831C10.4281 13.4192 10.4456 13.3559 10.4604 13.2935" fill="black"/>
<path fill-rule="evenodd" clip-rule="evenodd" d="M14.1599 10.6677C14.1276 10.3835 14.1694 9.78943 14.1722 9.75336C14.1899 9.5252 14.0832 8.62426 13.8816 8.70726C13.5433 8.4389 13.0928 8.37966 12.6715 8.35133C11.7965 8.29253 10.8656 8.42753 10.1899 9.01773C9.85579 9.3242 9.53046 9.77 9.55662 10.2341C9.25302 10.6741 8.82502 11.2776 9.20329 11.792C9.33186 11.9563 9.53622 12.0175 9.69776 12.1419C10.0227 12.4046 10.2265 12.7815 10.5545 13.0426C11.4234 13.8251 12.8988 13.9886 13.7526 13.0985C14.4127 12.4539 14.306 11.4895 14.1899 10.6677C14.1118 10.1152 14.2228 11.2221 14.1599 10.6677Z" fill="#FFC497"/>
<path fill-rule="evenodd" clip-rule="evenodd" d="M11.5026 7.14617C11.7366 7.09883 11.9769 7.06936 12.2159 7.07823L12.2343 7.07896C12.4141 7.08616 12.6418 7.1021 12.7987 7.20687C12.8077 7.1978 12.8222 7.19313 12.8354 7.19943C13.0218 7.28863 13.2268 7.3531 13.4231 7.41717C13.6185 7.4809 13.8212 7.523 14.0259 7.53997C14.103 7.54633 14.1689 7.6297 14.1201 7.7045C14.1085 7.7223 14.0972 7.7403 14.086 7.75837C14.1048 7.7564 14.1236 7.75437 14.1425 7.75247C14.2044 7.7462 14.2663 7.81247 14.2626 7.87293C14.2604 7.91097 14.2563 7.94853 14.2502 7.98567C14.2738 7.98517 14.2973 7.98873 14.3199 7.99833C14.4347 8.0469 14.4267 8.1839 14.4181 8.28817C14.4062 8.43283 14.3522 8.58603 14.252 8.6943C14.3268 8.7722 14.3798 8.86527 14.4114 8.97573C14.4343 9.05643 14.4471 9.14237 14.4408 9.22637L14.4388 9.2515C14.431 9.34267 14.4155 9.44357 14.3501 9.50913C14.3165 9.54293 14.2752 9.55527 14.2357 9.55137C14.2596 9.7614 14.2749 9.97266 14.2892 10.1832L14.296 10.2838C14.3281 10.7703 14.3522 11.2599 14.3459 11.7473C14.3401 12.2027 14.2503 12.6447 13.9716 13.0145C13.7177 13.3512 13.3533 13.5994 12.941 13.6937C12.7189 13.7447 12.492 13.7483 12.2672 13.7158C12.1581 13.7001 12.0484 13.6759 11.945 13.6377C11.8304 13.5953 11.7481 13.533 11.6711 13.4395C11.6346 13.3952 11.6522 13.3008 11.7248 13.3097C11.8345 13.323 11.9347 13.3391 12.0399 13.3717L12.055 13.3764C12.1598 13.4101 12.2684 13.4352 12.3779 13.4458C12.6024 13.4676 12.8302 13.4457 13.0452 13.3775C13.3953 13.2663 13.6968 13.0185 13.89 12.7072C14.1194 12.3382 14.1453 11.9193 14.142 11.495C14.1385 11.0294 14.1234 10.5635 14.0987 10.0984L14.0945 10.0209C14.0814 9.78153 14.0688 9.54203 14.0578 9.30253C14.0543 9.2274 14.0491 9.1517 14.0396 9.0767C13.9531 9.02593 13.8756 8.9559 13.8251 8.86953C13.7236 8.9116 13.6169 8.94193 13.5187 8.96613C13.2912 9.0222 13.055 9.0358 12.8234 9.0007C12.761 9.02656 12.6973 9.0493 12.6326 9.06887C12.6151 9.07663 12.5976 9.08427 12.5802 9.09173C12.4243 9.1586 12.2661 9.21523 12.1015 9.2567L12.0611 9.26683C11.9744 9.28823 11.8804 9.3093 11.7882 9.3159C11.773 9.32177 11.7567 9.32673 11.7388 9.3311C11.6549 9.35153 11.5678 9.35797 11.4817 9.35077C11.3979 9.3437 11.3373 9.2588 11.3835 9.17933C11.4173 9.12133 11.4513 9.0635 11.4856 9.0058C11.3661 9.05567 11.2428 9.09713 11.1183 9.1323C10.9927 9.16776 10.8653 9.19767 10.7377 9.22517C10.6695 9.23973 10.601 9.25266 10.5329 9.26723C10.4842 9.2776 10.4094 9.283 10.3696 9.31517C10.3257 9.35047 10.3133 9.4328 10.2966 9.4836C10.2747 9.54956 10.2542 9.6158 10.2355 9.68283C10.1981 9.81653 10.1676 9.95223 10.1439 10.0892C10.1202 10.2264 10.1043 10.365 10.0954 10.5039C10.0866 10.6428 10.0905 10.7825 10.0763 10.9207C10.0686 10.9941 9.99007 11.0318 9.93204 10.9805C9.92524 10.9745 9.91837 10.9684 9.91157 10.9623L9.90144 10.953C9.85181 10.908 9.80371 10.8602 9.76398 10.8064C9.75678 10.7965 9.74987 10.7861 9.74344 10.7756C9.74241 10.7756 9.74151 10.7753 9.74044 10.7745L9.72944 10.7662C9.60817 10.6758 9.40561 10.5579 9.28741 10.7081C9.24971 10.756 9.23044 10.8169 9.21441 10.8758L9.18634 10.981C9.16817 11.0497 9.15107 11.1188 9.14107 11.1891C9.11841 11.3465 9.12981 11.528 9.23791 11.6543C9.28111 11.7047 9.34061 11.7408 9.40701 11.7503C9.44407 11.7554 9.48064 11.7491 9.51737 11.7444C9.55471 11.7397 9.59067 11.7473 9.62801 11.7437C9.68737 11.7378 9.71331 11.809 9.69111 11.8538C9.67914 11.8778 9.66501 11.8986 9.64901 11.9161C9.66187 11.9273 9.67417 11.9393 9.68604 11.9519C9.72111 11.9632 9.75257 11.9874 9.77614 12.0194C9.79517 12.0452 9.80504 12.0733 9.80671 12.1029C9.80881 12.1103 9.81061 12.1178 9.81224 12.1254L9.84441 12.1778C9.85151 12.1892 9.85854 12.2006 9.86561 12.2117C9.94747 12.3409 10.0383 12.4503 10.1512 12.5533C10.2599 12.6525 10.3779 12.7413 10.48 12.8477L10.492 12.8603C10.5872 12.9609 10.6875 13.0825 10.6503 13.2287C10.6407 13.2663 10.5884 13.2933 10.5542 13.2679C10.4443 13.1862 10.389 13.0567 10.2957 12.9575C10.1998 12.8554 10.0935 12.7635 9.99724 12.6617C9.90624 12.5655 9.83444 12.4566 9.78031 12.3367C9.75871 12.3606 9.72724 12.3776 9.68364 12.3842C9.60867 12.3954 9.53881 12.3514 9.50614 12.2864C9.48511 12.2957 9.46371 12.3041 9.44211 12.3107C9.32844 12.3456 9.25697 12.2189 9.29984 12.1253C9.32277 12.0751 9.35141 12.0315 9.38694 11.9949C9.27584 11.9795 9.16281 11.922 9.08977 11.8502C8.90661 11.6697 8.88141 11.3985 8.92264 11.1574C8.94454 11.0295 8.98231 10.9001 9.03134 10.7801C9.03987 10.7592 9.04904 10.7382 9.05904 10.7174C9.05351 10.7173 9.04781 10.7149 9.04421 10.7102C9.01107 10.6649 8.97077 10.6277 8.94617 10.577C8.92354 10.5304 8.89837 10.4832 8.88051 10.4347C8.84377 10.3354 8.82581 10.2233 8.81381 10.1182C8.78907 9.90323 8.79864 9.68957 8.83151 9.47593C8.88741 9.11203 9.02244 8.76377 9.22141 8.4582C9.21057 8.4525 9.20017 8.4456 9.19051 8.43747L9.18574 8.43326L9.17797 8.42627C9.12121 8.37477 9.12611 8.27827 9.17797 8.2261L9.19434 8.20963C9.21511 8.189 9.23297 8.17263 9.26651 8.15013C9.27144 8.1468 9.27651 8.1437 9.28161 8.14077C9.26407 8.1083 9.25797 8.0703 9.27021 8.0284C9.31277 7.88243 9.52237 7.8876 9.65521 7.95127C9.80217 7.8198 9.96514 7.70567 10.1418 7.61327C10.5624 7.3933 11.0381 7.2399 11.5026 7.14617ZM9.32804 10.991C9.40657 10.9654 9.51094 11.0193 9.58154 11.0517C9.67104 11.0929 9.74721 11.1538 9.82094 11.2181C9.85767 11.2502 9.86427 11.3028 9.85514 11.3477C9.85421 11.3523 9.85334 11.3569 9.85227 11.3616C9.84254 11.4095 9.78917 11.4472 9.74194 11.4459C9.64314 11.4432 9.59607 11.3577 9.54014 11.2852C9.53357 11.297 9.52531 11.3078 9.51511 11.3159L9.50821 11.3213C9.48501 11.339 9.45941 11.3532 9.42874 11.3518C9.40701 11.3507 9.38621 11.3452 9.36697 11.3351C9.31901 11.3097 9.29791 11.2475 9.31091 11.1969C9.31901 11.165 9.33761 11.1401 9.36191 11.1228L9.35284 11.1166C9.33347 11.1031 9.31581 11.0889 9.30204 11.0678L9.29894 11.0629H9.30014C9.28514 11.037 9.29491 11.0019 9.32804 10.991Z" fill="black"/>
<path fill-rule="evenodd" clip-rule="evenodd" d="M13.0387 12.5031C12.928 12.5351 12.8092 12.538 12.6964 12.5049C12.5941 12.4749 12.489 12.4088 12.4137 12.3213C12.3468 12.2436 12.3035 12.1492 12.3052 12.0484C12.3054 12.0369 12.3095 12.0273 12.3158 12.0199C12.3226 12.0118 12.3321 12.0063 12.3423 12.0039C12.3528 12.0015 12.3639 12.0023 12.3733 12.0066C12.3819 12.0105 12.3892 12.0171 12.3938 12.0267C12.4054 12.042 12.4169 12.0569 12.4285 12.0715C12.5215 12.1864 12.6116 12.2723 12.7516 12.3031C12.8275 12.3198 12.9033 12.3124 12.9729 12.2869C13.0473 12.2596 13.1147 12.2116 13.1674 12.1502C13.1913 12.1224 13.2194 12.111 13.2469 12.1109C13.2781 12.1106 13.309 12.1252 13.3322 12.1483C13.355 12.1711 13.3703 12.202 13.3717 12.2344C13.3729 12.2628 13.3636 12.2925 13.339 12.3189C13.2578 12.4062 13.1525 12.4701 13.0387 12.5031ZM13.0352 11.0638C13.1487 11.1328 13.3215 11.2936 13.1995 11.4645C13.0558 11.6153 12.849 11.4425 12.7471 11.3643C12.6526 11.3037 12.5464 11.4595 12.6341 11.5303C13.3706 12.0756 13.6695 11.0818 13.0926 10.9827C13.0291 10.9718 13.0055 11.0425 13.0352 11.0638ZM11.974 10.7603C11.9375 10.737 11.8946 10.729 11.8471 10.7506C11.8099 10.7675 11.7448 10.8239 11.6994 10.8979C11.6684 10.9485 11.6464 11.008 11.651 11.0699C11.6521 11.0842 11.6468 11.0948 11.6384 11.1027C11.6318 11.1089 11.6222 11.1134 11.611 11.1148C11.6015 11.116 11.5908 11.115 11.5821 11.1122C11.5656 11.1071 11.5569 11.0964 11.5536 11.0877C11.5219 11.0033 11.5355 10.9092 11.5711 10.8243C11.6191 10.7098 11.7063 10.6138 11.7635 10.5828C11.8612 10.5299 11.9766 10.5274 12.0745 10.5814C12.1578 10.6273 12.2099 10.7015 12.2618 10.7771C12.2728 10.7931 12.2837 10.8091 12.295 10.8247C12.3177 10.8561 12.3199 10.8873 12.3112 10.914C12.3014 10.9436 12.2767 10.9685 12.2457 10.9816C12.217 10.9937 12.1838 10.9954 12.1544 10.9829C12.1295 10.9725 12.1067 10.952 12.0923 10.9174C12.068 10.859 12.0275 10.7946 11.974 10.7603ZM13.8259 10.8902C13.8009 10.9032 13.7814 10.9072 13.7537 10.8989C13.7383 10.8942 13.7232 10.8854 13.7113 10.8736C13.6996 10.8618 13.6911 10.8472 13.6878 10.831C13.6797 10.791 13.6578 10.7536 13.6267 10.7292C13.6 10.7083 13.5664 10.6972 13.529 10.7035C13.4888 10.7102 13.4504 10.736 13.424 10.7665C13.4151 10.7767 13.4082 10.7882 13.4013 10.7997C13.3882 10.8212 13.3756 10.8412 13.3576 10.857C13.3508 10.863 13.3406 10.8672 13.3306 10.8672C13.3266 10.8672 13.3225 10.8665 13.3186 10.8653C13.2785 10.8251 13.2708 10.7945 13.2721 10.7643C13.2735 10.7325 13.286 10.7004 13.3062 10.6704C13.3536 10.6 13.4437 10.5424 13.5045 10.5293C13.5877 10.5114 13.6704 10.5329 13.7367 10.5794C13.8049 10.6272 13.8554 10.7015 13.8711 10.7852C13.8749 10.8054 13.8733 10.8271 13.8656 10.846C13.8581 10.8644 13.8451 10.8802 13.8259 10.8902ZM12.1576 10.0103C12.1076 10.059 12.0485 10.0665 11.9887 10.0732C11.9554 10.077 11.9289 10.08 11.9028 10.0859C11.831 10.1021 11.7601 10.1265 11.6954 10.1617C11.6278 10.1984 11.554 10.2427 11.501 10.2994C11.4884 10.313 11.4765 10.3271 11.4646 10.3413C11.4537 10.3543 11.4433 10.3667 11.4323 10.3788C11.4196 10.3926 11.4076 10.407 11.3956 10.4215C11.3882 10.4337 11.3868 10.4366 11.3853 10.4397C11.3831 10.4444 11.3805 10.4497 11.3775 10.4553C11.3734 10.463 11.3686 10.4715 11.3636 10.4791C11.3553 10.4931 11.3508 10.4969 11.347 10.4986C11.3406 10.5015 11.3345 10.5029 11.3286 10.5021C11.3231 10.5014 11.3179 10.4988 11.3128 10.4944C11.2871 10.4728 11.2796 10.4372 11.2803 10.3995C11.2815 10.3422 11.3026 10.2787 11.3221 10.2397C11.3674 10.1492 11.4302 10.055 11.5057 9.98735C11.5919 9.91015 11.6862 9.85172 11.7945 9.81145C11.8618 9.78642 11.9397 9.76345 12.013 9.76635C12.0658 9.76845 12.1161 9.78415 12.1577 9.82332C12.1833 9.84735 12.1956 9.88158 12.1956 9.91575C12.1956 9.95062 12.1828 9.98568 12.1576 10.0103ZM13.9275 10.456C13.9243 10.4612 13.9199 10.4648 13.915 10.467C13.9099 10.4693 13.9041 10.4699 13.8986 10.469C13.8932 10.4681 13.888 10.4656 13.8838 10.4618C13.8799 10.4582 13.8769 10.4533 13.8755 10.4474C13.8424 10.3018 13.778 10.1934 13.6405 10.1235C13.5729 10.0891 13.4952 10.0673 13.4216 10.0498C13.4002 10.0448 13.3776 10.0415 13.3548 10.0382C13.2835 10.0278 13.2116 10.0158 13.1651 9.95815C13.1371 9.92342 13.1254 9.87898 13.132 9.83835C13.1383 9.80012 13.1606 9.76505 13.2013 9.74402C13.3024 9.69172 13.4281 9.74305 13.5302 9.78675C13.5378 9.79002 13.5452 9.79318 13.5525 9.79625C13.6524 9.83842 13.7435 9.89408 13.8184 9.97368C13.8778 10.0368 13.9329 10.1302 13.955 10.2262C13.9735 10.3061 13.9692 10.3877 13.9275 10.456Z" fill="black"/>
<path fill-rule="evenodd" clip-rule="evenodd" d="M11.6968 12.6087C11.8184 12.3238 12.0839 12.1143 12.3896 12.0377C12.614 11.9817 12.8496 11.9834 13.0784 12.0057C13.1983 12.0173 13.3268 12.0268 13.4398 12.0713C13.5363 12.1093 13.6149 12.1812 13.674 12.2656C13.7444 12.3656 13.7922 12.4801 13.8259 12.5974C13.8306 12.6141 13.8351 12.6309 13.8393 12.6478C13.8247 12.7363 13.7937 12.8116 13.7117 12.8673C13.6317 12.9216 13.5362 12.9439 13.4411 12.9518C13.4317 12.9473 13.4227 12.9427 13.4145 12.938C13.2662 12.8531 13.1618 12.6525 12.9747 12.6796C12.8076 12.7038 12.6977 12.914 12.5984 13.0373C12.2795 13.0744 11.961 12.9786 11.7015 12.7963C11.6884 12.7339 11.6876 12.6709 11.6968 12.6087ZM14.056 12.3926C14.0305 12.321 13.9984 12.2517 13.9603 12.1863C13.8344 11.9704 13.6412 11.7983 13.4118 11.6999C12.8691 11.4675 12.1669 11.6313 11.7287 12.0125C11.579 12.1428 11.4276 12.3342 11.3818 12.5402C11.3681 12.5429 11.3552 12.55 11.3446 12.56C11.028 12.3606 10.7019 12.1688 10.4468 11.8924C10.2615 11.6916 10.1326 11.454 10.0537 11.1929C10.0472 11.1714 10.0126 11.1745 10.0136 11.1983C10.0139 11.2039 10.0142 11.2094 10.0145 11.215C10.0112 11.2048 9.99559 11.21 9.99439 11.22C9.95192 11.5372 9.89882 11.8735 9.94772 12.1924C9.97699 12.3826 10.0634 12.5219 10.1789 12.6723C10.3027 12.8336 10.4429 12.9835 10.5861 13.1273C10.6771 13.2186 10.772 13.3239 10.8834 13.3908C11.0128 13.4686 11.1597 13.5277 11.2979 13.5877C11.4385 13.6489 11.5812 13.7055 11.7266 13.7545C12.0172 13.8529 12.3176 13.9209 12.6232 13.9507C12.8679 13.9744 13.1475 14.0003 13.3821 13.9082C13.5618 13.8377 13.7069 13.7102 13.822 13.5567C13.9472 13.3896 14.0463 13.1993 14.101 12.9986C14.1579 12.7901 14.068 12.4262 14.056 12.3926Z" fill="black"/>
<path fill-rule="evenodd" clip-rule="evenodd" d="M13.8614 9.94641C14.2141 9.94641 14.4153 10.0222 14.4891 10.0281L14.4913 10.0283C14.5219 10.0303 14.5495 10.0328 14.5783 10.044C14.6845 10.0849 14.7018 10.1962 14.6398 10.2664C14.6355 10.4116 14.6546 10.5812 14.6218 10.7269C14.5814 11.341 14.2926 11.4446 14.1285 11.4824C14.0461 11.5014 13.9484 11.509 13.8609 11.4889C13.7115 11.4834 13.5639 11.4366 13.4376 11.3552C13.2617 11.2417 13.131 11.0673 13.0886 10.8604C13.0685 10.7617 13.0591 10.659 13.0701 10.5587L13.0717 10.5449C13.0145 10.5176 12.9483 10.5124 12.88 10.51C12.8473 10.5088 12.8152 10.5078 12.7839 10.5091C12.7534 10.5126 12.7232 10.5171 12.693 10.5233C12.6599 10.5333 12.6287 10.5497 12.5999 10.5758L12.5979 10.6138C12.5925 10.7089 12.58 10.8042 12.5607 10.8975C12.5323 11.0351 12.4866 11.1665 12.3893 11.2641C12.3564 11.3133 12.3157 11.3572 12.2662 11.3952C12.0865 11.5335 11.8424 11.5843 11.6183 11.5652C11.1635 11.5264 10.9006 11.1653 10.84 11.0109L10.8363 11.0016C10.7926 10.8868 10.7577 10.7379 10.6194 10.7133L10.59 10.708C10.5268 10.6961 10.4686 10.6796 10.4316 10.618C10.4154 10.5912 10.407 10.5611 10.405 10.5304C10.3834 10.5321 10.3618 10.5337 10.3404 10.5352C10.169 10.5715 9.14093 10.6022 9.0589 10.6022C9.0589 10.6022 8.90116 10.6686 8.83456 10.6172C8.7884 10.5814 8.7732 10.5337 8.79863 10.4797C8.83696 10.3984 9.01383 10.3496 9.0924 10.3341C9.0924 10.3341 10.3598 10.3446 10.4511 10.3273C10.5075 10.2691 10.6085 10.2771 10.6928 10.2679C10.7627 10.2181 10.8604 10.1847 10.9375 10.1624C10.9533 10.1564 10.9688 10.1507 10.984 10.1452C11.1255 10.0948 11.2725 10.0681 11.4218 10.0538C11.5758 10.0392 11.7302 10.0458 11.8833 10.0668C11.9478 10.0755 12.0117 10.0868 12.0751 10.1016C12.1887 10.1166 12.3017 10.1413 12.4153 10.1706L12.4381 10.1765C12.5577 10.2078 12.6807 10.235 12.8046 10.2137C12.9055 10.1965 13.0025 10.1577 13.0955 10.1157L13.1076 10.1102C13.3121 10.0168 13.6314 9.94641 13.8614 9.94641ZM12.0628 10.2878C11.9874 10.2712 11.9551 10.3875 12.0308 10.4042C12.0844 10.416 12.1298 10.443 12.1605 10.4888L12.1638 10.4938C12.205 10.5593 12.3091 10.4988 12.2676 10.4328C12.221 10.3586 12.1485 10.3066 12.0628 10.2878ZM14.2726 10.2157C14.246 10.1969 14.2057 10.2108 14.1903 10.2373C14.1733 10.2665 14.1844 10.2989 14.2093 10.318L14.2119 10.3199C14.2347 10.336 14.257 10.3648 14.2598 10.3944L14.26 10.3981C14.263 10.4755 14.3833 10.4759 14.3803 10.3981C14.3774 10.322 14.3333 10.2584 14.2726 10.2157Z" fill="black"/>
</g>
</g>
<defs>
<clipPath id="clip0_3189_23">
<rect width="24" height="24" fill="white"/>
</clipPath>
</defs>
</svg>
