<svg width="50" height="50" viewBox="0 0 50 50" fill="none" xmlns="http://www.w3.org/2000/svg">
<g clip-path="url(#clip0_1134_151)">
<path d="M46 0H4C1.79086 0 0 1.79086 0 4V46C0 48.2091 1.79086 50 4 50H46C48.2091 50 50 48.2091 50 46V4C50 1.79086 48.2091 0 46 0Z" fill="#EDE9DE"/>
<path d="M41 14.3334C41 11.3878 38.6122 9 35.6666 9H30.3333V19.6667C30.3333 13.7757 25.5577 9 19.6667 9C13.7757 9 9 13.7757 9 19.6667H19.6667C13.7757 19.6667 9 24.4423 9 30.3333C9 36.2243 13.7757 41 19.6667 41V30.3333H25C27.9455 30.3333 30.3333 27.9455 30.3333 25C30.3333 22.0545 27.9455 19.6667 25 19.6667H30.3333H35.6666C38.6122 19.6667 41 17.2789 41 14.3334Z" fill="black"/>
</g>
<defs>
<clipPath id="clip0_1134_151">
<rect width="50" height="50" fill="white"/>
</clipPath>
</defs>
</svg>
