<svg width="58" height="24" viewBox="0 0 58 24" fill="none" xmlns="http://www.w3.org/2000/svg">
<path d="M3.12668 13.127C2.94602 13.127 2.81401 13.0643 2.73063 12.9391C2.66115 12.8139 2.62641 12.6748 2.62641 12.5217C2.62641 12.327 2.68199 12.0696 2.79316 11.7496C2.90433 11.4157 3.03635 11.0748 3.18921 10.727C3.35597 10.3791 3.50883 10.087 3.64779 9.85043C3.89792 9.40522 4.21059 8.94609 4.58579 8.47304C4.96099 7.98609 5.40568 7.52696 5.91984 7.09565C6.51738 6.6087 7.11493 6.24 7.71247 5.98957C8.31001 5.72522 8.77554 5.59304 9.10905 5.59304C9.3175 5.59304 9.45646 5.64174 9.52594 5.73913C9.60932 5.82261 9.65101 5.94087 9.65101 6.09391C9.65101 6.30261 9.59542 6.54609 9.48425 6.82435C9.37308 7.10261 9.25496 7.35304 9.1299 7.57565C9.00483 7.79826 8.90755 7.94435 8.83807 8.01391C8.7269 8.12522 8.53235 8.18783 8.25443 8.20174C7.9904 8.20174 7.65688 8.26435 7.25389 8.38957C6.8509 8.50087 6.39926 8.77217 5.899 9.20348C5.48211 9.55131 5.1208 9.94783 4.81508 10.393C4.52326 10.8243 4.28007 11.2348 4.08552 11.6243C3.86318 12.0557 3.70337 12.3826 3.6061 12.6052C3.52272 12.8139 3.45324 12.953 3.39766 13.0226C3.34207 13.0922 3.25174 13.127 3.12668 13.127ZM1.89685 21.0365C1.38269 21.0365 0.938003 20.8904 0.562802 20.5983C0.187601 20.3061 0 19.84 0 19.2C0 18.6991 0.111171 18.1843 0.333512 17.6557C0.56975 17.127 0.889366 16.64 1.29236 16.1948C1.70925 15.7496 2.19562 15.3948 2.75148 15.1304C3.30733 14.8522 3.91182 14.713 4.56495 14.713C5.10691 14.713 5.53074 14.873 5.83646 15.193C6.15608 15.513 6.33673 15.9304 6.37842 16.4452C6.54518 17.0435 6.88564 17.4957 7.3998 17.8017C7.92786 18.1078 8.49761 18.2609 9.10905 18.2609C9.84556 18.2609 10.4709 18.0591 10.9851 17.6557C11.4992 17.2522 11.7563 16.6957 11.7563 15.9861C11.7563 15.5687 11.6521 15.1583 11.4436 14.7548C11.2491 14.3513 10.9712 14.0035 10.6099 13.7113C10.2486 13.4052 9.82471 13.1548 9.33834 12.96C8.85197 12.7652 8.34475 12.5774 7.81669 12.3965C7.63604 12.3409 7.54571 12.2017 7.54571 11.9791C7.54571 11.7704 7.62214 11.5409 7.775 11.2904C7.92786 11.04 8.12241 10.8243 8.35865 10.6435C8.60878 10.4487 8.85892 10.3513 9.10905 10.3513C9.65101 10.3513 10.1721 10.4835 10.6724 10.7478C11.1866 11.0122 11.6451 11.367 12.0481 11.8122C12.4511 12.2574 12.7707 12.7583 13.007 13.3148C13.2571 13.8574 13.3822 14.4139 13.3822 14.9843C13.3822 15.9583 13.132 16.8487 12.6318 17.6557C12.1315 18.4626 11.4645 19.1026 10.6307 19.5757C9.79692 20.0487 8.87281 20.2852 7.85838 20.2852C7.21915 20.2852 6.69109 20.1739 6.2742 19.9513C5.85731 19.7148 5.53769 19.4435 5.31535 19.1374C4.87067 19.6661 4.33566 20.1113 3.71032 20.473C3.09888 20.8487 2.49439 21.0365 1.89685 21.0365ZM2.91823 19.033C3.4185 19.033 3.87013 18.8591 4.27312 18.5113C4.67612 18.1496 4.92625 17.7252 5.02353 17.2383C4.84287 17.0574 4.62748 16.9252 4.37735 16.8417C4.12721 16.7443 3.87013 16.6957 3.6061 16.6957C3.17531 16.6957 2.75842 16.8209 2.35543 17.0713C1.96633 17.3078 1.77178 17.6696 1.77178 18.1565C1.77178 18.3791 1.87601 18.5809 2.08445 18.7617C2.2929 18.9426 2.57082 19.033 2.91823 19.033ZM4.98184 24C4.59274 24 4.32871 23.8609 4.18975 23.5826C4.05078 23.3183 3.9813 23.0887 3.9813 22.8939C3.9813 22.6574 4.03689 22.3861 4.14806 22.08C4.25923 21.7739 4.39124 21.4748 4.5441 21.1826C4.71086 20.9043 4.87762 20.6678 5.04437 20.473C5.21113 20.2783 5.35009 20.1809 5.46126 20.1809C5.57243 20.1809 5.66971 20.2783 5.75308 20.473C5.83646 20.6678 5.90594 20.9043 5.96153 21.1826C6.03101 21.4609 6.07965 21.7322 6.10744 21.9965C6.14913 22.2609 6.16997 22.4626 6.16997 22.6017C6.16997 22.9496 6.0727 23.2696 5.87815 23.5617C5.6836 23.8539 5.38483 24 4.98184 24Z" fill="black"/>
<path d="M28.5286 7.03304L28.7788 7.28348C28.6815 7.64522 28.5008 7.90956 28.2368 8.07652H14.1668L13.8958 7.80522C14.0348 7.44348 14.2224 7.18609 14.4586 7.03304H28.5286ZM22.9215 10.2678L22.7339 10.1635C21.914 10.7061 20.573 11.5548 18.7109 12.7096C19.0583 13.6417 19.1695 14.7617 19.0444 16.0696C18.8915 16.2783 18.6414 16.4661 18.294 16.633C17.9605 16.8 17.62 16.9113 17.2726 16.967C15.8413 16.7722 14.8199 16.1878 14.2085 15.2139C14.2085 14.5183 14.41 14.0035 14.813 13.6696C18.6067 11.6243 21.3581 9.99652 23.0674 8.78609C24.2069 8.77217 25.0129 9.05739 25.4853 9.64174L24.2972 11.9165L23.2758 19.8887C22.8311 20.0139 22.3865 20.0278 21.9418 19.9304C21.4971 19.8191 21.1149 19.6174 20.7953 19.3252L22.9215 10.2678ZM17.0642 15.5896L17.2726 15.4435C17.3977 14.873 17.3838 14.2609 17.2309 13.607L15.6884 14.5461C16.0358 15.047 16.4944 15.3948 17.0642 15.5896Z" fill="black"/>
<path d="M29.6661 0C30.0552 0 30.4652 0.153044 30.896 0.459131C31.3406 0.751305 31.6672 1.12 31.8756 1.56522C30.7778 4.55652 30.1178 6.37913 29.8954 7.03304H33.3556L33.6057 7.28348C33.5085 7.64522 33.3278 7.90956 33.0638 8.07652H29.6244L29.5619 9.26609L28.1445 19.8887C27.6998 20.0139 27.2551 20.0278 26.8104 19.9304C26.3658 19.8191 25.9836 19.6174 25.664 19.3252C26.0114 17.8922 26.8452 14.1426 28.1653 8.07652H25.8307L25.5598 7.80522C25.6987 7.44348 25.8863 7.18609 26.1226 7.03304H28.3946C28.9505 4.47304 29.3396 2.74783 29.5619 1.85739L29.3743 1.75304C28.2487 2.53217 27.0745 3.97217 25.8516 6.07304C25.4486 6.04522 25.1012 5.93391 24.8094 5.73913C24.5175 5.54435 24.3438 5.28696 24.2883 4.96696C24.8858 3.89565 25.7613 2.80348 26.9147 1.69044C28.0681 0.563479 28.9852 0 29.6661 0ZM33.5015 5.42609C33.2931 5.63478 33.036 5.73913 32.7303 5.73913C32.4246 5.73913 32.1605 5.63478 31.9382 5.42609C31.7297 5.20348 31.6255 4.93913 31.6255 4.63304C31.6255 4.32696 31.7297 4.06957 31.9382 3.86087C32.1605 3.65217 32.4246 3.54783 32.7303 3.54783C33.036 3.54783 33.2931 3.65913 33.5015 3.88174C33.71 4.09044 33.8142 4.34783 33.8142 4.65391C33.8142 4.94609 33.71 5.20348 33.5015 5.42609Z" fill="black"/>
<path d="M33.8021 20.2643C32.9684 20.2643 32.3083 19.9861 31.8219 19.4296C31.3494 18.873 31.1132 18.1148 31.1132 17.1548C31.1132 16.4452 31.2244 15.7496 31.4467 15.0678C31.6829 14.3861 32.0095 13.7739 32.4264 13.2313C32.8433 12.6887 33.3297 12.2574 33.8855 11.9374C34.4414 11.6174 35.0459 11.4574 35.699 11.4574C36.1159 11.4574 36.4841 11.52 36.8037 11.6452C37.1373 11.7704 37.4291 11.9304 37.6792 12.1252C37.6653 11.1791 37.6167 10.3304 37.5333 9.57913C37.4499 8.82783 37.2484 8.13217 36.9288 7.49217C36.8732 7.38087 36.8246 7.28348 36.7829 7.2C36.7551 7.10261 36.7412 7.01217 36.7412 6.92869C36.7412 6.73391 36.8176 6.55304 36.9705 6.38609C37.1373 6.21913 37.3388 6.08 37.575 5.9687C37.8112 5.85739 38.0336 5.80174 38.242 5.80174C38.6172 5.80174 38.8951 5.9687 39.0758 6.30261C39.2703 6.62261 39.3954 7.06783 39.451 7.63826C39.5066 8.19478 39.5344 8.83478 39.5344 9.55826C39.5344 10.6157 39.4857 11.5687 39.3885 12.4174C39.2912 13.2661 39.2009 14.0104 39.1175 14.6504C39.0619 15.0678 39.0133 15.4296 38.9716 15.7357C38.9299 16.0417 38.909 16.2922 38.909 16.487C38.909 17.4748 39.3329 18.0591 40.1806 18.24C40.4029 18.2817 40.5141 18.4278 40.5141 18.6783C40.5141 18.8313 40.4654 19.0261 40.3682 19.2626C40.2848 19.4991 40.125 19.7148 39.8887 19.9096C39.6525 20.0904 39.312 20.1809 38.8674 20.1809C38.2698 20.1809 37.8668 19.9791 37.6584 19.5757C37.4499 19.1722 37.3457 18.56 37.3457 17.7391C36.9566 18.4487 36.4633 19.047 35.8657 19.5339C35.2682 20.0209 34.5803 20.2643 33.8021 20.2643ZM34.4483 18.0313C34.8374 18.0313 35.2265 17.9061 35.6156 17.6557C36.0047 17.4052 36.3521 17.0643 36.6578 16.633C36.8385 16.3687 36.9983 16.0696 37.1373 15.7357C37.2901 15.3878 37.4291 15.04 37.5542 14.6922C36.8454 14.0522 36.0603 13.7322 35.1987 13.7322C34.4483 13.7322 33.8508 13.9617 33.4061 14.4209C32.9614 14.8661 32.7391 15.4226 32.7391 16.0904C32.7391 16.6609 32.9058 17.127 33.2393 17.4887C33.5728 17.8504 33.9758 18.0313 34.4483 18.0313Z" fill="black"/>
<path d="M43.1138 20.2226C42.8914 20.2226 42.7108 20.1809 42.5718 20.0974C42.4467 20.0278 42.4051 19.9026 42.4467 19.7217C42.5996 19.1235 42.7247 18.5183 42.8219 17.9061C42.9331 17.28 42.9887 16.6817 42.9887 16.1113C42.9887 15.3739 42.9401 14.8383 42.8428 14.5043C42.7594 14.1565 42.6413 13.92 42.4884 13.7948C42.3356 13.6557 42.148 13.5513 41.9256 13.4817C41.8284 13.44 41.738 13.3843 41.6547 13.3148C41.5852 13.2452 41.5504 13.1478 41.5504 13.0226C41.5504 12.8278 41.6269 12.6122 41.7797 12.3757C41.9326 12.1391 42.148 11.9374 42.4259 11.7704C42.7038 11.5896 43.0234 11.4991 43.3847 11.4991C43.8572 11.4991 44.1838 11.6661 44.3644 12C44.559 12.32 44.6563 12.7443 44.6563 13.273C44.9064 12.7165 45.2121 12.2783 45.5734 11.9583C45.9486 11.6243 46.4142 11.4574 46.97 11.4574C47.3452 11.4574 47.6579 11.5409 47.908 11.7078C48.1581 11.8748 48.2832 12.1461 48.2832 12.5217C48.2832 12.8974 48.1581 13.2522 47.908 13.5861C47.6718 13.9061 47.4286 14.0661 47.1785 14.0661C47.1368 14.0661 47.0881 14.0591 47.0325 14.0452C46.977 14.0313 46.9283 13.9965 46.8866 13.9409C46.706 13.7183 46.4836 13.607 46.2196 13.607C45.8166 13.607 45.4623 13.8713 45.1565 14.4C44.8508 14.9287 44.6841 15.6591 44.6563 16.5913C44.6702 16.9391 44.6771 17.2939 44.6771 17.6557C44.691 18.0174 44.698 18.2817 44.698 18.4487C44.698 18.9635 44.552 19.3878 44.2602 19.7217C43.9823 20.0557 43.6001 20.2226 43.1138 20.2226Z" fill="black"/>
<path d="M51.1449 20.2643C50.3112 20.2643 49.6372 20.007 49.123 19.4922C48.6227 18.9635 48.3726 18.2122 48.3726 17.2383C48.3726 16.5426 48.5046 15.8539 48.7687 15.1722C49.0466 14.4765 49.4426 13.8504 49.9568 13.2939C50.471 12.7374 51.0894 12.2922 51.812 11.9583C52.5346 11.6243 53.3475 11.4574 54.2508 11.4574C55.0845 11.4574 55.7933 11.6035 56.3769 11.8957C56.9744 12.1739 57.2732 12.5565 57.2732 13.0435C57.2732 13.1687 57.2593 13.3357 57.2315 13.5443C57.2037 13.7391 57.169 13.8991 57.1273 14.0243C57.0856 14.1357 57.0231 14.24 56.9397 14.3374C56.8702 14.4209 56.7729 14.4626 56.6479 14.4626C56.5923 14.4626 56.4881 14.4417 56.3352 14.4C56.2796 14.6922 56.2379 14.9774 56.2101 15.2557C56.1824 15.5339 56.1685 15.8122 56.1685 16.0904C56.1685 16.6191 56.2449 17.0922 56.3978 17.5096C56.5645 17.913 56.8841 18.1635 57.3566 18.2609C57.4817 18.2887 57.5789 18.3304 57.6484 18.3861C57.7318 18.4417 57.7735 18.56 57.7735 18.7409C57.7735 18.8939 57.7318 19.0887 57.6484 19.3252C57.5789 19.5617 57.433 19.7774 57.2107 19.9722C57.0022 20.153 56.6965 20.2435 56.2935 20.2435C55.7516 20.2435 55.3347 20.0487 55.0429 19.6591C54.751 19.2557 54.6051 18.6852 54.6051 17.9478C54.2299 18.6296 53.7505 19.1861 53.1669 19.6174C52.5971 20.0487 51.9231 20.2643 51.1449 20.2643ZM51.812 18.0939C52.3678 18.0939 52.8542 17.92 53.2711 17.5722C53.7019 17.2243 54.0354 16.7861 54.2716 16.2574C54.4245 15.9235 54.5426 15.5617 54.626 15.1722C54.7093 14.7687 54.7649 14.3722 54.7927 13.9826C54.5565 13.8713 54.2855 13.7809 53.9798 13.7113C53.6741 13.6417 53.3544 13.607 53.0209 13.607C52.1733 13.607 51.4715 13.8574 50.9156 14.3583C50.3737 14.8591 50.1027 15.4852 50.1027 16.2365C50.1027 16.793 50.2556 17.2452 50.5613 17.593C50.867 17.927 51.2839 18.0939 51.812 18.0939Z" fill="black"/>
</svg>
